<svg width="72" height="72" viewBox="0 0 72 72" fill="none" xmlns="http://www.w3.org/2000/svg">
<path fill-rule="evenodd" clip-rule="evenodd" d="M71.6775 31.0104C70.9109 31.0268 70.1146 31.0268 69.2888 31.0104C69.2888 30.6356 69.2888 30.261 69.2888 29.8863C68.9141 29.8863 68.5395 29.8863 68.1647 29.8863C68.1647 29.5116 68.1647 29.1369 68.1647 28.7622C67.79 28.7622 67.4154 28.7622 67.0406 28.7622C67.0406 28.3875 67.0406 28.0129 67.0406 27.6381C66.6659 27.6381 66.2913 27.6381 65.9166 27.6381C65.9166 28.0129 65.9166 28.3875 65.9166 28.7622C65.5418 28.7622 65.1672 28.7622 64.7925 28.7622C64.7925 28.3875 64.7925 28.0129 64.7925 27.6381C64.4177 27.6381 64.0431 27.6381 63.6684 27.6381C63.6684 26.8888 63.6684 26.1393 63.6684 25.3899C63.3406 25.3899 63.0126 25.3899 62.6848 25.3899C62.6848 25.5772 62.6848 25.7647 62.6848 25.952C62.8253 25.952 62.9658 25.952 63.1063 25.952C63.1063 27.2634 63.1063 28.5749 63.1063 29.8863C63.2936 29.8863 63.4811 29.8863 63.6684 29.8863C63.6684 30.261 63.6684 30.6356 63.6684 31.0104C64.0431 31.0104 64.4177 31.0104 64.7925 31.0104C64.8159 32.8844 64.7925 34.7579 64.7222 36.6308C64.4728 36.2734 64.2153 36.2734 63.9494 36.6308C64.0164 36.7682 64.11 36.8853 64.2304 36.9821C64.2212 37.9079 64.1744 38.8212 64.0899 39.7221C64.281 37.0353 63.3208 34.8808 61.2094 33.2586C61.2017 32.3842 61.0377 31.5411 60.7177 30.7294C62.6327 26.8449 61.8833 23.5899 58.4695 20.9639C57.7665 20.542 57.0172 20.2376 56.2213 20.0505C55.7845 16.3824 53.7705 14.1342 50.1793 13.306C49.8681 13.1981 49.5403 13.1044 49.1958 13.025C48.1948 10.0637 46.134 8.40092 43.0133 8.03686C40.0314 7.84169 37.7364 8.9891 36.1283 11.4794C33.4796 8.04206 30.1542 7.17553 26.152 8.87992C25.701 9.26169 25.2325 9.61297 24.7469 9.93375C24.6595 9.7754 24.5424 9.63489 24.3956 9.51222C23.2601 9.6502 22.1126 9.69713 20.9531 9.65273C20.9531 9.27799 20.9531 8.90339 20.9531 8.52864C20.5784 8.52864 20.2037 8.52864 19.829 8.52864C19.829 8.90339 19.829 9.27799 19.829 9.65273C19.0797 9.65273 18.3302 9.65273 17.5808 9.65273C17.5808 9.27799 17.5808 8.90339 17.5808 8.52864C17.2061 8.52864 16.8315 8.52864 16.4567 8.52864C16.4567 8.71595 16.4567 8.90339 16.4567 9.09069C16.1757 9.09069 15.8947 9.09069 15.6137 9.09069C15.6137 8.90339 15.6137 8.71595 15.6137 8.52864C15.3327 8.52864 15.0516 8.52864 14.7706 8.52864C14.7706 8.90339 14.7706 9.27799 14.7706 9.65273C14.2533 9.62955 13.7381 9.65287 13.225 9.72299C13.0936 10.0575 13.0468 10.4088 13.0845 10.7768C12.7097 10.7768 12.3351 10.7768 11.9604 10.7768C11.9604 13.025 11.9604 15.2732 11.9604 17.5213C12.3351 17.5213 12.7097 17.5213 13.0845 17.5213C13.0845 17.8961 13.0845 18.2707 13.0845 18.6454C12.8972 18.6454 12.7097 18.6454 12.5224 18.6454C12.4785 19.0314 12.5253 19.4062 12.663 19.7695C12.9472 19.5344 13.275 19.4407 13.6465 19.4885C13.5805 19.8884 13.6975 20.2162 13.9978 20.4721C14.2937 20.2204 14.645 20.1267 15.0516 20.191C14.2662 20.5373 13.5168 20.9588 12.8035 21.4556C12.7599 21.2817 12.6897 21.2817 12.5927 21.4556C12.549 21.2811 12.6193 21.1406 12.8035 21.0341C12.663 20.8936 12.5224 20.7531 12.3819 20.6126C12.2118 20.7213 12.2118 20.8384 12.3819 20.9639C12.2326 21.1308 12.0451 21.201 11.8199 21.1746C11.8667 20.8936 11.9136 20.6126 11.9604 20.3316C11.7731 20.3316 11.5857 20.3316 11.3984 20.3316C11.3984 20.5189 11.3984 20.7063 11.3984 20.8936C11.0236 20.8936 10.649 20.8936 10.2743 20.8936C10.2743 21.2683 10.2743 21.6429 10.2743 22.0177C9.71223 22.0177 9.15018 22.0177 8.58814 22.0177C8.58814 22.3924 8.58814 22.767 8.58814 23.1418C8.2134 23.1418 7.8388 23.1418 7.46405 23.1418C7.46405 23.5165 7.46405 23.8911 7.46405 24.2659C7.08931 24.2659 6.71471 24.2659 6.33997 24.2659C6.33997 24.6406 6.33997 25.0152 6.33997 25.3899C5.59062 25.3899 4.84114 25.3899 4.09179 25.3899C4.09179 26.514 4.09179 27.6381 4.09179 28.7622C4.46654 28.7622 4.84114 28.7622 5.21588 28.7622C5.21588 31.0104 5.21588 33.2586 5.21588 35.5067C5.82471 35.5067 6.43369 35.5067 7.04252 35.5067C7.11165 35.8357 7.27563 36.1167 7.53431 36.3498C7.78315 35.9912 8.06418 35.6634 8.37737 35.3662C8.53728 35.4349 8.70125 35.4817 8.86916 35.5067C7.62269 38.2103 7.78667 40.8331 9.36095 43.3753C9.9806 44.1122 10.7066 44.7211 11.5389 45.202C10.396 48.5057 11.0985 51.3393 13.6465 53.7029C14.3526 54.2315 15.1254 54.6297 15.965 54.8972C16.2825 57.9928 17.8984 60.077 20.8126 61.15C21.789 61.3076 22.7726 61.4013 23.7633 61.431C26.6087 64.0824 29.7467 64.4572 33.1775 62.5551C34.3823 61.7953 35.3191 60.7883 35.9878 59.5341C38.3086 63.1295 41.5403 64.3706 45.683 63.2576C46.6858 62.8517 47.5289 62.2428 48.2122 61.431C52.721 61.5118 55.3674 59.3339 56.1511 54.8972C60.5072 53.0045 61.9825 49.7728 60.5771 45.202C61.5131 44.5471 62.3092 43.7509 62.9658 42.8133C63.1413 43.0432 63.3756 43.2071 63.6684 43.3051C64.4163 43.3752 65.1657 43.3987 65.9166 43.3753C65.9166 44.8742 65.9166 46.3729 65.9166 47.8717C65.5418 47.8717 65.1672 47.8717 64.7925 47.8717C64.7925 49.3705 64.7925 50.8692 64.7925 52.368C64.4177 52.368 64.0431 52.368 63.6684 52.368C63.6684 53.4453 63.6684 54.5225 63.6684 55.5998C63.4342 55.5998 63.2001 55.5998 62.9658 55.5998C62.9658 56.0681 62.9658 56.5366 62.9658 57.0049C63.2001 57.0049 63.4342 57.0049 63.6684 57.0049C63.6684 57.2859 63.6684 57.5669 63.6684 57.848C63.2469 57.848 62.8253 57.848 62.4038 57.848C62.3293 58.3955 62.4698 58.8638 62.8253 59.2531C62.7205 59.4267 62.6737 59.6142 62.6848 59.8151C62.8253 59.8151 62.9658 59.8151 63.1063 59.8151C56.8393 66.7427 49.0175 70.7003 39.641 71.6883C32.774 72.3126 26.2169 71.1885 19.9695 68.316C19.4967 68.1272 19.0752 67.8696 18.7049 67.5432C10.2363 62.9801 4.54564 56.0951 1.63285 46.8881C-1.85856 34.5961 0.249104 23.402 7.95584 13.306C17.6753 2.16603 29.8294 -1.97904 44.4184 0.870804C57.7432 4.59378 66.5251 13.0479 70.7642 26.233C71.1749 27.808 71.4794 29.4004 71.6775 31.0104Z" fill="#011A3C"/>
<path fill-rule="evenodd" clip-rule="evenodd" d="M49.1938 13.025C49.4438 13.2841 49.7716 13.3777 50.1774 13.306C53.7686 14.1342 55.7825 16.3823 56.2193 20.0505C57.0152 20.2375 57.7645 20.542 58.4675 20.9638C61.8814 23.5899 62.6307 26.8449 60.7157 30.7293C61.0358 31.5411 61.1998 32.3841 61.2075 33.2585C63.3188 34.8807 64.279 37.0353 64.088 39.722C63.8513 40.8071 63.4766 41.8376 62.9639 42.8133C62.3073 43.7509 61.5111 44.547 60.5752 45.202C61.9806 49.7728 60.5052 53.0045 56.1491 54.8972C55.3655 59.3338 52.7191 61.5118 48.2102 61.431C47.5269 62.2428 46.6839 62.8517 45.681 63.2576C41.5384 64.3706 38.3066 63.1295 35.9858 59.5341C35.3171 60.7883 34.3803 61.7953 33.1756 62.555C29.7447 64.4571 26.6067 64.0824 23.7613 61.431C22.7706 61.4013 21.787 61.3076 20.8106 61.1499C17.8964 60.077 16.2805 57.9928 15.963 54.8972C15.1234 54.6297 14.3506 54.2315 13.6446 53.7029C11.0965 51.3393 10.394 48.5057 11.5369 45.202C10.7047 44.7211 9.97864 44.1122 9.35898 43.3753C7.7847 40.8331 7.62073 38.2103 8.8672 35.5067C9.36938 34.6059 10.0486 33.8566 10.9046 33.2585C10.897 32.3785 11.0609 31.5355 11.3964 30.7293C9.69705 27.2961 10.1654 24.2049 12.8015 21.4556C13.5149 20.9588 14.2642 20.5373 15.0497 20.191C15.3766 20.1679 15.681 20.0743 15.963 19.91C16.3103 16.6105 18.0667 14.4326 21.2322 13.3763C21.786 13.2367 22.3481 13.143 22.9183 13.0952C23.2916 11.9033 23.9006 10.8495 24.7449 9.93375C25.2305 9.61296 25.699 9.26168 26.15 8.87992C30.1522 7.17552 33.4777 8.04205 36.1263 11.4794C37.7344 8.98909 40.0294 7.84168 43.0113 8.03685C46.1321 8.40091 48.1928 10.0637 49.1938 13.025Z" fill="#F8FAFD"/>
<path fill-rule="evenodd" clip-rule="evenodd" d="M24.7474 9.93374C23.9031 10.8495 23.2941 11.9033 22.9208 13.0952C22.3506 13.143 21.7885 13.2367 21.2347 13.3763C18.0692 14.4326 16.3128 16.6105 15.9655 19.91C15.6835 20.0743 15.3791 20.1678 15.0522 20.191C14.6455 20.1267 14.2943 20.2204 13.9983 20.4721C13.6981 20.2162 13.581 19.8884 13.6471 19.4885C13.2756 19.4407 12.9477 19.5344 12.6635 19.7695C12.5258 19.4061 12.479 19.0314 12.523 18.6454C12.7103 18.6454 12.8977 18.6454 13.085 18.6454C13.085 18.2707 13.085 17.8961 13.085 17.5213C12.7103 17.5213 12.3357 17.5213 11.9609 17.5213C11.9609 15.2732 11.9609 13.025 11.9609 10.7768C12.3357 10.7768 12.7103 10.7768 13.085 10.7768C13.0474 10.4088 13.0942 10.0575 13.2255 9.72298C13.7387 9.65286 14.2538 9.62954 14.7712 9.65272C14.7712 9.27798 14.7712 8.90338 14.7712 8.52863C15.0522 8.52863 15.3332 8.52863 15.6142 8.52863C15.6142 8.71593 15.6142 8.90338 15.6142 9.09068C15.8952 9.09068 16.1763 9.09068 16.4573 9.09068C16.4573 8.90338 16.4573 8.71593 16.4573 8.52863C16.832 8.52863 17.2066 8.52863 17.5814 8.52863C17.5814 8.90338 17.5814 9.27798 17.5814 9.65272C18.3307 9.65272 19.0802 9.65272 19.8295 9.65272C19.8295 9.27798 19.8295 8.90338 19.8295 8.52863C20.2043 8.52863 20.5789 8.52863 20.9536 8.52863C20.9536 8.90338 20.9536 9.27798 20.9536 9.65272C22.1131 9.69712 23.2607 9.65019 24.3961 9.51221C24.543 9.63487 24.66 9.77539 24.7474 9.93374Z" fill="#011B3F"/>
<path fill-rule="evenodd" clip-rule="evenodd" d="M31.6302 10.9173C30.5547 10.8372 29.4774 10.7903 28.3984 10.7768C29.4912 10.3848 30.5685 10.4316 31.6302 10.9173Z" fill="#3B79C4"/>
<path fill-rule="evenodd" clip-rule="evenodd" d="M44.7001 11.1983C46.136 11.957 46.9321 13.1513 47.0888 14.7814C46.8966 15.5443 46.8263 16.3172 46.878 17.0998C47.342 17.5511 47.8806 17.6448 48.4939 17.3808C49.0923 17.4367 49.3499 17.1557 49.2667 16.5378C49.4849 16.004 49.6722 16.004 49.8287 16.5378C49.8755 16.444 49.9225 16.3505 49.9692 16.2567C50.1946 16.4182 50.4287 16.4182 50.6718 16.2567C51.175 16.4808 51.6668 16.7151 52.1472 16.9593C52.3612 17.3998 52.4549 17.8681 52.4282 18.3644C52.6624 18.3644 52.8965 18.3644 53.1307 18.3644C53.3846 19.412 53.4782 20.4892 53.4118 21.5961C53.4212 21.8012 53.3744 21.9885 53.2712 22.1582C52.8313 22.5276 52.4098 22.9257 52.0067 23.3525C51.1106 23.8393 50.1738 23.9328 49.1964 23.6336C48.7496 23.444 48.4218 23.1395 48.2129 22.7202C49.0417 22.3569 49.2994 21.7479 48.9857 20.8936C48.7845 20.6211 48.5269 20.4338 48.2129 20.3315C46.2553 20.1104 44.2881 20.1806 42.3114 20.5423C42.1878 20.7328 42.1408 20.9436 42.1709 21.1746C40.5855 22.4291 39.9767 24.0684 40.3443 26.0925C40.2625 25.6243 40.1453 25.1558 39.993 24.6874C39.2023 25.3749 38.3358 25.9369 37.3935 26.3735C37.3557 24.215 37.4025 22.0605 37.534 19.91C37.9515 19.0178 38.6073 18.3387 39.5012 17.8726C40.453 17.8616 41.3898 17.7679 42.3114 17.5916C42.8126 17.0432 42.8594 16.4578 42.4519 15.8352C42.3773 15.5368 42.1899 15.326 41.8899 15.2029C40.9074 15.1326 39.9238 15.1093 38.9391 15.1326C38.9084 14.9675 38.9552 14.827 39.0797 14.7111C39.2578 14.8415 39.4451 14.865 39.6417 14.7814C39.4923 14.6144 39.3049 14.5442 39.0797 14.5706C39.2016 13.7547 38.9439 13.6611 38.3068 14.2896C38.2246 14.0607 38.1075 13.8499 37.9556 13.6573C38.1604 13.4111 38.3477 13.1536 38.5176 12.8845C38.6481 13.0515 38.6949 13.2388 38.6581 13.4465C38.7986 13.4465 38.9391 13.4465 39.0797 13.4465C39.0208 13.0496 39.1613 12.7452 39.5012 12.5332C40.0226 12.5086 40.5379 12.4384 41.0468 12.3224C40.9063 12.1351 40.7658 11.9477 40.6253 11.7604C40.908 11.4857 41.2359 11.2749 41.6088 11.1281C41.5151 11.0813 41.4215 11.0344 41.3278 10.9876C42.1709 10.8939 43.014 10.8939 43.857 10.9876C44.1029 11.1729 44.3839 11.2432 44.7001 11.1983Z" fill="#1069D0"/>
<path fill-rule="evenodd" clip-rule="evenodd" d="M28.402 10.7768C29.481 10.7903 30.5583 10.8372 31.6338 10.9173C34.0865 11.9348 35.1169 13.7614 34.725 16.3973C34.3629 16.1945 34.0351 15.9603 33.7414 15.6947C33.5905 15.5001 33.4032 15.3363 33.1794 15.2029C32.0093 15.1327 30.8385 15.1093 29.6666 15.1327C29.6666 15.2732 29.6666 15.4137 29.6666 15.5542C29.3925 15.5925 29.1817 15.499 29.0343 15.2732C28.9646 15.4889 28.9879 15.6996 29.1046 15.9055C29.0682 16.0827 28.9745 16.2232 28.8235 16.327C28.1225 16.3971 27.42 16.4206 26.7159 16.3973C26.7159 15.9757 26.7159 15.5542 26.7159 15.1327C26.3411 15.1327 25.9665 15.1327 25.5918 15.1327C25.5918 14.8048 25.5918 14.4769 25.5918 14.1491C25.5918 13.8213 25.5918 13.4933 25.5918 13.1655C25.924 12.2474 26.5329 11.5682 27.4184 11.1281C27.7205 10.9298 28.0485 10.8127 28.402 10.7768Z" fill="#136BD3"/>
<path fill-rule="evenodd" clip-rule="evenodd" d="M49.1953 13.025C49.5398 13.1044 49.8677 13.1981 50.1789 13.306C49.7731 13.3777 49.4453 13.2841 49.1953 13.025Z" fill="#6E8194"/>
<path fill-rule="evenodd" clip-rule="evenodd" d="M44.7004 11.1984C44.3842 11.2432 44.1032 11.1729 43.8573 10.9876C43.0143 10.8939 42.1712 10.8939 41.3281 10.9876C41.4219 11.0344 41.5154 11.0813 41.6092 11.1281C41.2362 11.2749 40.9083 11.4857 40.6256 11.7604C40.7661 11.9477 40.9066 12.1351 41.0471 12.3224C40.5382 12.4384 40.0229 12.5086 39.5015 12.5332C39.1616 12.7452 39.0211 13.0496 39.08 13.4465C38.9394 13.4465 38.7989 13.4465 38.6584 13.4465C38.6952 13.2388 38.6485 13.0515 38.5179 12.8845C38.348 13.1536 38.1607 13.4111 37.9559 13.6573C38.1078 13.8499 38.225 14.0607 38.3071 14.2896C38.9442 13.6611 39.2019 13.7547 39.08 14.5706C39.3052 14.5442 39.4926 14.6144 39.642 14.7814C39.4454 14.865 39.2581 14.8415 39.08 14.7111C38.9555 14.827 38.9087 14.9676 38.9394 15.1327C39.9241 15.1093 40.9077 15.1327 41.8902 15.2029C42.1902 15.326 42.3776 15.5368 42.4522 15.8352C42.258 15.6524 42.0239 15.5354 41.7497 15.4839C40.7193 15.3902 39.6888 15.3902 38.6584 15.4839C38.1769 15.7363 37.7319 16.0408 37.3236 16.3973C37.1604 12.9523 38.7996 10.9852 42.2415 10.4958C43.1445 10.5 43.9641 10.7342 44.7004 11.1984Z" fill="#1E6CC9"/>
<path fill-rule="evenodd" clip-rule="evenodd" d="M25.5886 13.1655C25.5886 13.4933 25.5886 13.8213 25.5886 14.1491C25.3587 14.6704 25.2651 15.2324 25.3076 15.8352C25.1463 15.2056 25.1228 14.5498 25.2373 13.8681C25.2899 13.5883 25.4069 13.3541 25.5886 13.1655Z" fill="#397DC6"/>
<path fill-rule="evenodd" clip-rule="evenodd" d="M52.1455 16.9593C51.6651 16.7151 51.1733 16.4808 50.6701 16.2567C50.427 16.4182 50.1929 16.4182 49.9676 16.2567C49.9208 16.3505 49.8738 16.444 49.827 16.5378C49.6705 16.004 49.4832 16.004 49.265 16.5378C49.3482 17.1557 49.0906 17.4367 48.4922 17.3808C48.9588 16.8701 49.1463 16.2611 49.0542 15.5542C50.2304 15.7211 51.261 16.1894 52.1455 16.9593Z" fill="#2C71C7"/>
<path fill-rule="evenodd" clip-rule="evenodd" d="M25.5894 14.1491C25.5894 14.4769 25.5894 14.8048 25.5894 15.1326C25.9641 15.1326 26.3387 15.1326 26.7135 15.1326C26.7135 15.5542 26.7135 15.9757 26.7135 16.3972C27.4176 16.4206 28.1201 16.3971 28.8211 16.327C28.972 16.2232 29.0658 16.0826 29.1022 15.9055C28.9855 15.6996 28.9622 15.4888 29.0319 15.2732C29.1793 15.499 29.3901 15.5925 29.6642 15.5542C29.6642 15.4137 29.6642 15.2732 29.6642 15.1326C30.8361 15.1093 32.0069 15.1326 33.177 15.2029C33.4008 15.3362 33.5881 15.5001 33.739 15.6947C32.4932 15.4123 31.2286 15.342 29.9452 15.4839C29.0146 16.2529 29.0146 17.0023 29.9452 17.7321C30.7883 17.7789 31.6314 17.8258 32.4744 17.8726C32.852 18.02 33.1798 18.2308 33.458 18.5049C32.2073 18.1546 30.9427 18.1311 29.6642 18.4347C29.5071 18.5856 29.3666 18.7494 29.2427 18.9264C28.9024 18.7292 28.8086 18.4716 28.9616 18.1536C28.8324 17.7544 28.6919 17.3564 28.5401 16.9593C28.3138 17.0745 28.22 17.2619 28.2591 17.5213C27.2532 17.2853 26.9252 17.6365 27.2755 18.5752C27.6001 18.645 27.9279 18.6683 28.2591 18.6454C28.396 19.118 28.4193 19.5864 28.3293 20.0505C28.7672 20.0456 29.212 19.9988 29.6642 19.91C30.1299 20.0379 30.1768 20.2252 29.8047 20.4721C29.5802 20.3337 29.3459 20.3103 29.1022 20.4018C29.2786 20.4604 29.3724 20.5774 29.3832 20.7531C29.0243 20.5977 28.6496 20.4806 28.2591 20.4018C26.7603 20.3081 25.2616 20.3081 23.7627 20.4018C23.1208 20.7588 22.91 21.2976 23.1304 22.0177C23.3735 22.2849 23.6311 22.5192 23.9033 22.7202C23.5908 23.1592 23.1692 23.4637 22.6387 23.6336C21.9361 23.7273 21.2336 23.7273 20.531 23.6336C19.9888 23.2075 19.4735 22.7627 18.9854 22.2987C18.9854 22.205 18.9386 22.1582 18.8449 22.1582C17.8644 19.0799 18.8949 16.9489 21.9361 15.7649C22.3038 15.6494 22.6786 15.5792 23.0602 15.5542C22.9025 16.9653 23.5115 17.5976 24.8868 17.4511C25.4626 17.0326 25.6032 16.4939 25.3084 15.8352C25.2659 15.2324 25.3595 14.6704 25.5894 14.1491Z" fill="#176BCE"/>
<path fill-rule="evenodd" clip-rule="evenodd" d="M33.4588 18.5049C34.0925 19.0226 34.514 19.6783 34.7234 20.4721C34.7234 22.3924 34.7234 24.3126 34.7234 26.233C34.3443 26.1427 33.9695 26.0256 33.5993 25.8817C33.0304 25.4107 32.4215 25.0127 31.7727 24.6874C31.6951 22.9397 30.8988 21.6282 29.384 20.7531C29.3732 20.5774 29.2794 20.4604 29.103 20.4018C29.3467 20.3103 29.581 20.3337 29.8055 20.4721C30.1776 20.2252 30.1307 20.0379 29.665 19.91C29.2128 19.9988 28.768 20.0456 28.3301 20.0505C28.4201 19.5864 28.3968 19.118 28.2599 18.6454C27.9287 18.6683 27.6009 18.645 27.2763 18.5752C26.926 17.6366 27.254 17.2853 28.2599 17.5213C28.2208 17.2619 28.3146 17.0745 28.5409 16.9593C28.6927 17.3564 28.8332 17.7544 28.9624 18.1536C28.8094 18.4716 28.9032 18.7292 29.2435 18.9264C29.3674 18.7494 29.5079 18.5856 29.665 18.4347C30.9435 18.1311 32.2081 18.1546 33.4588 18.5049Z" fill="#1266CD"/>
<path fill-rule="evenodd" clip-rule="evenodd" d="M52.1484 16.9593C53.6083 18.2351 54.0299 19.7807 53.413 21.5961C53.4795 20.4892 53.3859 19.412 53.132 18.3644C52.8978 18.3644 52.6637 18.3644 52.4295 18.3644C52.4562 17.8681 52.3624 17.3998 52.1484 16.9593Z" fill="#2B6ABD"/>
<path fill-rule="evenodd" clip-rule="evenodd" d="M12.8035 21.4556C10.1673 24.2049 9.69902 27.2961 11.3984 30.7294C11.0628 31.5355 10.899 32.3785 10.9066 33.2585C10.0506 33.8566 9.37135 34.6059 8.86917 35.5067C8.70126 35.4817 8.53728 35.4349 8.37738 35.3662C8.06418 35.6634 7.78316 35.9912 7.53431 36.3498C7.27563 36.1167 7.11166 35.8357 7.04252 35.5067C6.43369 35.5067 5.82472 35.5067 5.21588 35.5067C5.21588 33.2585 5.21588 31.0104 5.21588 28.7622C4.84114 28.7622 4.46654 28.7622 4.0918 28.7622C4.0918 27.6381 4.0918 26.514 4.0918 25.3899C4.84114 25.3899 5.59063 25.3899 6.33997 25.3899C6.33997 25.0152 6.33997 24.6406 6.33997 24.2659C6.71471 24.2659 7.08931 24.2659 7.46406 24.2659C7.46406 23.8911 7.46406 23.5165 7.46406 23.1418C7.8388 23.1418 8.2134 23.1418 8.58814 23.1418C8.58814 22.767 8.58814 22.3924 8.58814 22.0177C9.15019 22.0177 9.71223 22.0177 10.2743 22.0177C10.2743 21.6429 10.2743 21.2683 10.2743 20.8936C10.649 20.8936 11.0236 20.8936 11.3984 20.8936C11.3984 20.7063 11.3984 20.5189 11.3984 20.3316C11.5857 20.3316 11.7731 20.3316 11.9604 20.3316C11.9136 20.6126 11.8667 20.8936 11.8199 21.1746C12.0451 21.201 12.2326 21.1308 12.3819 20.9638C12.2118 20.8384 12.2118 20.7213 12.3819 20.6126C12.5224 20.7531 12.663 20.8936 12.8035 21.0341C12.6193 21.1406 12.549 21.2811 12.5927 21.4556C12.6897 21.2817 12.7599 21.2817 12.8035 21.4556Z" fill="#011B3F"/>
<path fill-rule="evenodd" clip-rule="evenodd" d="M29.3841 20.7531C30.899 21.6282 31.6953 22.9397 31.7728 24.6874C31.8185 25.4039 31.7482 26.1064 31.5621 26.7951C30.793 27.5875 30.0905 27.5406 29.4544 26.6545C29.4076 25.8115 29.3607 24.9684 29.3139 24.1254C28.9812 23.4319 28.4426 22.9869 27.698 22.7905C26.4343 22.7202 25.1697 22.6969 23.9042 22.7202C23.632 22.5192 23.3745 22.2849 23.1314 22.0177C22.9109 21.2976 23.1217 20.7589 23.7637 20.4018C25.2625 20.3081 26.7612 20.3081 28.2601 20.4018C28.6505 20.4806 29.0253 20.5977 29.3841 20.7531Z" fill="#F6F9FD"/>
<path fill-rule="evenodd" clip-rule="evenodd" d="M48.2109 20.3315C46.7582 20.3082 45.3063 20.3315 43.8551 20.4018C43.2443 20.5713 42.6823 20.829 42.169 21.1746C42.1389 20.9436 42.1858 20.7328 42.3095 20.5423C44.2862 20.1806 46.2533 20.1104 48.2109 20.3315Z" fill="#3B7DCF"/>
<path fill-rule="evenodd" clip-rule="evenodd" d="M48.2126 20.3315C48.5267 20.4338 48.7842 20.6211 48.9854 20.8936C49.2992 21.7479 49.0415 22.3569 48.2126 22.7202C46.9004 22.6969 45.5889 22.7202 44.2783 22.7905C43.6533 23.0875 43.1615 23.5325 42.803 24.1253C42.7562 24.9216 42.7092 25.7177 42.6624 26.514C42.0796 27.5146 41.3771 27.6083 40.5548 26.795C40.413 26.5808 40.3428 26.3465 40.344 26.0925C39.9764 24.0684 40.5853 22.4291 42.1707 21.1746C42.6839 20.829 43.246 20.5713 43.8568 20.4018C45.308 20.3315 46.7599 20.3082 48.2126 20.3315Z" fill="#F7FBFE"/>
<path fill-rule="evenodd" clip-rule="evenodd" d="M53.2703 22.1582C55.3157 22.0514 57.0252 22.754 58.3989 24.2659C58.7608 24.7192 58.9715 25.2344 59.0312 25.8115C59.0544 26.2355 59.031 26.6571 58.961 27.0761C58.7574 26.6382 58.4529 26.287 58.0477 26.0222C54.5242 24.0208 52.1823 24.9576 51.0221 28.8325C51.1056 28.8977 51.1993 28.9211 51.3032 28.9027C50.4923 29.1451 49.813 28.9109 49.2657 28.2002C49.0154 27.5357 48.7109 26.9034 48.3524 26.3033C47.2146 25.6186 46.512 25.923 46.2448 27.2166C46.3823 28.099 46.7101 28.8953 47.2283 29.6053C47.1277 31.643 46.4252 33.4228 45.1207 34.9447C44.5532 35.3145 43.9443 35.619 43.294 35.858C42.5461 35.9281 41.7967 35.9516 41.0459 35.9283C42.6911 35.5719 43.7917 34.5884 44.3479 32.9775C44.6976 31.5719 44.1589 30.9162 42.732 31.0104C42.1105 29.6939 41.0801 29.2489 39.6408 29.6755C38.985 30.2145 38.2356 30.4722 37.3926 30.4483C37.3926 29.09 37.3926 27.7318 37.3926 26.3735C38.3348 25.937 39.2014 25.3749 39.992 24.6874C40.1443 25.1559 40.2615 25.6243 40.3433 26.0925C40.342 26.3465 40.4123 26.5808 40.5541 26.7951C41.3763 27.6083 42.0789 27.5146 42.6617 26.514C42.7085 25.7178 42.7555 24.9216 42.8022 24.1254C43.1608 23.5325 43.6526 23.0875 44.2776 22.7905C45.5882 22.7202 46.8997 22.6969 48.2119 22.7202C48.4209 23.1395 48.7487 23.444 49.1955 23.6336C50.1729 23.9329 51.1097 23.8393 52.0057 23.3525C52.4088 22.9257 52.8304 22.5276 53.2703 22.1582Z" fill="#073F9C"/>
<path fill-rule="evenodd" clip-rule="evenodd" d="M37.5339 19.91C37.4024 22.0605 37.3556 24.215 37.3934 26.3735C37.3934 27.7318 37.3934 29.09 37.3934 30.4483C37.3476 31.6917 37.3944 32.9095 37.5339 34.1016C37.5255 34.1779 37.4787 34.2247 37.3934 34.2421C37.2295 29.606 37.2061 24.9691 37.3232 20.3315C37.3558 20.1577 37.426 20.0172 37.5339 19.91Z" fill="#356AAB"/>
<path fill-rule="evenodd" clip-rule="evenodd" d="M18.8455 22.1582C18.9392 22.1582 18.986 22.205 18.986 22.2987C18.4333 22.4195 17.8712 22.4663 17.2999 22.4392C17.2999 22.5797 17.2999 22.7202 17.2999 22.8608C17.5611 22.8553 17.7484 22.9723 17.8619 23.212C17.7758 23.5137 17.6822 23.8182 17.5809 24.1253C17.2178 24.2508 16.8431 24.2976 16.4568 24.2659C16.4568 24.0786 16.4568 23.8911 16.4568 23.7038C16.0024 23.855 15.534 23.9487 15.0517 23.9848C15.0694 24.2237 15.1632 24.4345 15.3328 24.6171C15.3124 24.7256 15.2656 24.8193 15.1922 24.8982C16.4185 24.8783 17.5894 24.9954 18.705 25.2494C17.7254 25.1078 16.7418 25.0843 15.7543 25.1792C15.002 25.652 14.2526 26.1203 13.5061 26.5843C13.2608 26.9579 13.0733 27.356 12.9441 27.7786C12.694 25.0322 13.9118 23.229 16.5974 22.369C17.3356 22.1904 18.0849 22.1201 18.8455 22.1582Z" fill="#10449A"/>
<path fill-rule="evenodd" clip-rule="evenodd" d="M18.987 22.2987C19.4752 22.7627 19.9904 23.2075 20.5327 23.6336C21.2352 23.7273 21.9378 23.7273 22.6403 23.6336C23.1709 23.4637 23.5924 23.1592 23.9049 22.7202C25.1704 22.6969 26.435 22.7202 27.6987 22.7905C28.4433 22.9869 28.9819 23.4319 29.3146 24.1254C29.3614 24.9684 29.4083 25.8115 29.4551 26.6545C30.0912 27.5406 30.7937 27.5875 31.5628 26.7951C31.7489 26.1064 31.8192 25.4039 31.7735 24.6874C32.4224 25.0127 33.0312 25.4107 33.6002 25.8817C33.9704 26.0256 34.3452 26.1427 34.7243 26.233C34.7243 27.6381 34.7243 29.0432 34.7243 30.4483C34.3002 30.4715 33.8787 30.4481 33.4597 30.3781C32.6011 29.6612 31.6176 29.427 30.5089 29.6755C29.9826 30.0083 29.6078 30.4531 29.3848 31.0104C28.4805 30.8859 27.9185 31.2605 27.6987 32.1345C27.6065 32.2921 27.5597 32.4794 27.5582 32.6965C27.7796 33.2871 27.8499 33.8959 27.769 34.5232C27.7101 34.6878 27.6165 34.8283 27.4879 34.9447C27.3733 34.7588 27.2093 34.6652 26.9962 34.6637C26.6734 34.4116 26.3691 34.1306 26.0828 33.8206C25.8537 33.2233 25.5961 32.6612 25.31 32.1345C25.185 31.3074 24.9977 30.5111 24.748 29.7458C25.5934 28.8268 25.8979 27.7495 25.6613 26.514C24.6426 25.6503 23.8463 25.8376 23.2726 27.0761C22.9551 28.6259 22.0417 29.2347 20.5327 28.9027C20.6732 28.9027 20.8137 28.9027 20.9542 28.9027C20.9007 27.3629 20.1981 26.2622 18.8465 25.6007C18.7409 25.5064 18.6939 25.3894 18.706 25.2494C17.5904 24.9954 16.4195 24.8783 15.1932 24.8982C15.2666 24.8193 15.3134 24.7256 15.3338 24.6171C15.1642 24.4345 15.0704 24.2237 15.0527 23.9848C15.535 23.9487 16.0034 23.855 16.4578 23.7038C16.4578 23.8911 16.4578 24.0786 16.4578 24.2659C16.8441 24.2976 17.2188 24.2508 17.5819 24.1254C17.6832 23.8182 17.7768 23.5137 17.863 23.212C17.7494 22.9723 17.5621 22.8553 17.3009 22.8608C17.3009 22.7202 17.3009 22.5797 17.3009 22.4392C17.8722 22.4663 18.4343 22.4195 18.987 22.2987Z" fill="#063F9B"/>
<path fill-rule="evenodd" clip-rule="evenodd" d="M59.0326 25.8115C59.2429 26.063 59.3366 26.3673 59.3136 26.7248C59.3054 27.3065 59.1649 27.8451 58.892 28.3407C57.121 26.9742 55.2007 26.7165 53.1311 27.5679C52.6136 28.1528 52.0046 28.5978 51.3045 28.9027C51.2006 28.9211 51.1069 28.8977 51.0234 28.8325C52.1836 24.9576 54.5255 24.0208 58.049 26.0222C58.4542 26.287 58.7587 26.6382 58.9623 27.0761C59.0323 26.6571 59.0557 26.2355 59.0326 25.8115Z" fill="#062770"/>
<path fill-rule="evenodd" clip-rule="evenodd" d="M71.6778 31.0104C72.9034 40.8622 70.6317 49.8079 64.8631 57.8479C64.2965 58.531 63.711 59.1867 63.1067 59.8151C62.9662 59.8151 62.8256 59.8151 62.6851 59.8151C62.674 59.6142 62.7208 59.4267 62.8256 59.2531C62.4702 58.8638 62.3296 58.3955 62.4041 57.8479C62.8256 57.8479 63.2472 57.8479 63.6687 57.8479C63.6687 57.5669 63.6687 57.2859 63.6687 57.0049C63.4345 57.0049 63.2004 57.0049 62.9662 57.0049C62.9662 56.5366 62.9662 56.0681 62.9662 55.5998C63.2004 55.5998 63.4345 55.5998 63.6687 55.5998C63.6687 54.5225 63.6687 53.4453 63.6687 52.368C64.0435 52.368 64.4181 52.368 64.7928 52.368C64.7928 50.8692 64.7928 49.3705 64.7928 47.8717C65.1675 47.8717 65.5421 47.8717 65.9169 47.8717C65.9169 46.3728 65.9169 44.8742 65.9169 43.3753C65.166 43.3987 64.4167 43.3752 63.6687 43.3051C63.3759 43.2071 63.1417 43.0432 62.9662 42.8133C63.4789 41.8376 63.8536 40.8071 64.0902 39.722C64.1747 38.8212 64.2215 37.9079 64.2308 36.9821C64.1103 36.8853 64.0168 36.7682 63.9497 36.6308C64.2156 36.2734 64.4731 36.2734 64.7225 36.6308C64.7928 34.7579 64.8163 32.8844 64.7928 31.0104C64.4181 31.0104 64.0435 31.0104 63.6687 31.0104C63.6687 30.6356 63.6687 30.261 63.6687 29.8863C63.4814 29.8863 63.294 29.8863 63.1067 29.8863C63.1067 28.5749 63.1067 27.2634 63.1067 25.952C62.9662 25.952 62.8256 25.952 62.6851 25.952C62.6851 25.7647 62.6851 25.5772 62.6851 25.3899C63.0129 25.3899 63.3409 25.3899 63.6687 25.3899C63.6687 26.1393 63.6687 26.8888 63.6687 27.6381C64.0435 27.6381 64.4181 27.6381 64.7928 27.6381C64.7928 28.0129 64.7928 28.3875 64.7928 28.7622C65.1675 28.7622 65.5421 28.7622 65.9169 28.7622C65.9169 28.3875 65.9169 28.0129 65.9169 27.6381C66.2916 27.6381 66.6662 27.6381 67.041 27.6381C67.041 28.0129 67.041 28.3875 67.041 28.7622C67.4157 28.7622 67.7903 28.7622 68.1651 28.7622C68.1651 29.1369 68.1651 29.5115 68.1651 29.8863C68.5398 29.8863 68.9144 29.8863 69.2891 29.8863C69.2891 30.261 69.2891 30.6356 69.2891 31.0104C70.1149 31.0268 70.9112 31.0268 71.6778 31.0104Z" fill="#011B3F"/>
<path fill-rule="evenodd" clip-rule="evenodd" d="M18.7071 25.2494C18.695 25.3894 18.7419 25.5064 18.8476 25.6007C20.1991 26.2622 20.9017 27.3629 20.9552 28.9027C20.8147 28.9027 20.6742 28.9027 20.5337 28.9027C20.001 28.5349 19.4859 28.1368 18.9881 27.7084C16.9283 26.704 15.0081 26.9148 13.2271 28.3407C13.0008 28.2255 12.9071 28.038 12.9461 27.7786C13.0754 27.356 13.2628 26.9579 13.5082 26.5843C14.2547 26.1203 15.004 25.652 15.7563 25.1792C16.7438 25.0843 17.7274 25.1078 18.7071 25.2494Z" fill="#062967"/>
<path fill-rule="evenodd" clip-rule="evenodd" d="M34.7245 20.4721C34.9114 25.0859 34.9114 29.7227 34.7245 34.3826C34.6392 34.3652 34.5924 34.3184 34.584 34.2421C34.7235 33.0031 34.7704 31.7385 34.7245 30.4483C34.7245 29.0432 34.7245 27.6381 34.7245 26.233C34.7245 24.3126 34.7245 22.3924 34.7245 20.4721Z" fill="#385E91"/>
<path fill-rule="evenodd" clip-rule="evenodd" d="M42.7314 31.0104C42.214 31.3879 41.9096 31.9032 41.8181 32.556C41.6073 32.8605 41.3498 33.118 41.0453 33.3288C40.1667 33.498 39.2768 33.5917 38.3756 33.6098C38.1103 33.8057 37.8293 33.9695 37.5325 34.1016C37.393 32.9095 37.3462 31.6917 37.392 30.4483C38.2351 30.4722 38.9844 30.2145 39.6402 29.6755C41.0796 29.2489 42.1099 29.6939 42.7314 31.0104Z" fill="#05296D"/>
<path fill-rule="evenodd" clip-rule="evenodd" d="M34.7222 30.4483C34.7682 31.7385 34.7212 33.0031 34.5817 34.2421C34.2337 33.9975 33.8589 33.7867 33.4576 33.6098C32.7551 33.563 32.0525 33.5161 31.35 33.4693C30.5006 33.0617 30.0088 32.3825 29.8746 31.4319C29.7137 31.2723 29.5497 31.1318 29.3828 31.0104C29.6058 30.4531 29.9805 30.0083 30.5069 29.6755C31.6155 29.427 32.5991 29.6612 33.4576 30.3781C33.8766 30.4481 34.2982 30.4715 34.7222 30.4483Z" fill="#03286C"/>
<path fill-rule="evenodd" clip-rule="evenodd" d="M17.2989 29.6053C18.0386 30.0177 18.6944 30.5328 19.266 31.1509C18.9638 32.1343 18.308 32.5793 17.2989 32.4857C16.967 32.0823 16.8265 31.614 16.8773 31.0806C16.9008 30.8231 16.9241 30.5654 16.9476 30.3078C17.1013 30.0861 17.2185 29.8519 17.2989 29.6053Z" fill="#1067C5"/>
<path fill-rule="evenodd" clip-rule="evenodd" d="M24.7476 29.7458C24.9973 30.5111 25.1846 31.3074 25.3097 32.1345C25.3661 32.8329 25.6004 33.4652 26.0122 34.0314C25.8959 34.1599 25.7554 34.2535 25.5907 34.3124C27.0375 34.7886 27.0375 35.1866 25.5907 35.5067C25.5907 35.3194 25.5907 35.132 25.5907 34.9447C25.1132 34.995 24.6682 34.9014 24.2558 34.6637C24.1111 34.7109 24.0408 34.8046 24.0451 34.9447C23.791 34.747 23.51 34.583 23.202 34.4529C22.0262 34.3489 20.8552 34.3722 19.6892 34.5231C19.7048 34.4365 19.7516 34.3662 19.8297 34.3124C20.3918 34.2656 20.9538 34.2187 21.5159 34.1719C21.3286 34.1251 21.1411 34.0781 20.9538 34.0314C21.1362 33.4527 21.1362 32.8672 20.9538 32.275C20.2229 32.1139 20.2462 31.9734 21.0241 31.8534C21.2225 32.0534 21.3865 32.0299 21.5159 31.7832C20.9042 31.7488 20.2952 31.7488 19.6892 31.7832C19.5372 31.5963 19.4435 31.3855 19.4082 31.1509C21.5126 31.9127 23.2925 31.4444 24.7476 29.7458Z" fill="#012A73"/>
<path fill-rule="evenodd" clip-rule="evenodd" d="M47.2288 29.6053C48.5538 31.4006 50.2867 31.9626 52.4277 31.2914C52.8998 31.5501 53.3213 31.9014 53.6923 32.3452C54.1138 32.439 54.5353 32.439 54.9569 32.3452C55.4846 31.5894 55.5081 30.8166 55.0271 30.0268C54.7239 29.9495 54.6536 29.809 54.8163 29.6053C57.6424 29.692 58.8837 31.144 58.5399 33.9611C58.4133 34.3224 58.226 34.6502 57.9778 34.9447C57.8531 35.493 57.9233 36.0082 58.1886 36.4903C58.0487 36.5024 57.9316 36.4555 57.8373 36.3498C57.6854 36.6683 57.4747 36.6918 57.205 36.42C57.5904 35.9669 57.7777 35.4283 57.7671 34.8042C57.6193 34.7832 57.4787 34.8066 57.3455 34.8744C57.0762 35.4584 56.7016 35.5756 56.2215 35.2257C55.9732 35.5822 55.7624 35.9568 55.5892 36.3498C55.0514 35.9254 54.8874 36.0192 55.0974 36.6308C53.4804 34.5848 51.3727 33.8588 48.7744 34.4529C47.839 35.0519 47.6985 35.8014 48.3528 36.7011C49.5344 36.8565 50.7053 36.9737 51.8656 37.0523C50.7883 37.0523 49.7112 37.0523 48.6339 37.0523C48.2698 36.9464 48.0122 36.7122 47.8611 36.3498C47.7975 35.8753 47.704 35.4068 47.58 34.9447C47.5112 35.1264 47.4877 35.3138 47.5098 35.5067C46.855 35.6004 46.1994 35.6238 45.5426 35.577C45.312 35.4183 45.1715 35.2076 45.1211 34.9447C46.4256 33.4228 47.1282 31.643 47.2288 29.6053Z" fill="#032E7A"/>
<path fill-rule="evenodd" clip-rule="evenodd" d="M54.8184 29.6053C54.6557 29.809 54.7259 29.9495 55.0291 30.0268C55.5101 30.8166 55.4866 31.5894 54.9589 32.3452C54.5373 32.439 54.1158 32.439 53.6943 32.3452C53.3233 31.9014 52.9018 31.5501 52.4297 31.2914C53.2222 30.7346 54.0184 30.1725 54.8184 29.6053Z" fill="#1066CA"/>
<path fill-rule="evenodd" clip-rule="evenodd" d="M17.3008 29.6053C17.2205 29.8519 17.1033 30.0861 16.9496 30.3078C16.9261 30.5654 16.9028 30.8231 16.8793 31.0806C16.8284 31.614 16.9689 32.0823 17.3008 32.4857C18.31 32.5793 18.9657 32.1343 19.268 31.1509C19.3148 31.1509 19.3617 31.1509 19.4085 31.1509C19.4438 31.3855 19.5375 31.5963 19.6895 31.7832C20.2955 31.7488 20.9045 31.7488 21.5162 31.7832C21.3867 32.0299 21.2228 32.0534 21.0244 31.8534C20.2465 31.9734 20.2232 32.1139 20.9541 32.275C21.1365 32.8672 21.1365 33.4527 20.9541 34.0314C21.1414 34.0782 21.3289 34.1251 21.5162 34.1719C20.9541 34.2187 20.3921 34.2656 19.83 34.3124C19.7519 34.3662 19.7051 34.4365 19.6895 34.5231C18.3545 35.108 17.3242 36.0447 16.5983 37.3334C16.3528 37.6043 16.1187 37.9086 15.8957 38.2467C15.4756 38.3657 15.2882 38.2017 15.3337 37.7549C14.9499 37.6808 14.5752 37.5638 14.2096 37.4036C14.0895 37.0613 13.9959 36.7101 13.9286 36.3498C14.1184 36.0796 14.2121 35.7751 14.2096 35.4365C13.9005 34.8393 13.6428 34.207 13.4368 33.5396C13.3216 30.8679 14.6096 29.5564 17.3008 29.6053Z" fill="#04307E"/>
<path fill-rule="evenodd" clip-rule="evenodd" d="M24.0439 34.9447C24.316 35.6316 24.1754 36.2172 23.6224 36.7011C22.4622 36.8753 21.2912 36.969 20.1096 36.9821C19.6545 37.226 19.3266 37.5773 19.126 38.0359C18.8144 38.4031 18.5802 38.8246 18.4235 39.3005C17.8263 39.7905 17.194 39.8374 16.5266 39.441C16.2508 38.7265 16.2742 38.024 16.5969 37.3334C17.3227 36.0447 18.3531 35.108 19.6881 34.5232C20.8541 34.3722 22.0251 34.3489 23.2009 34.4529C23.5089 34.583 23.7899 34.747 24.0439 34.9447Z" fill="#F7FAFD"/>
<path fill-rule="evenodd" clip-rule="evenodd" d="M55.0958 36.6308C55.3047 37.0485 55.5155 37.4701 55.7281 37.8954C56.0642 39.2921 55.5256 39.8776 54.1122 39.6518C53.6164 39.0136 53.1714 38.3344 52.7774 37.6144C52.5472 37.3005 52.2427 37.1132 51.8641 37.0523C50.7037 36.9737 49.5328 36.8565 48.3513 36.7011C47.6969 35.8014 47.8374 35.0519 48.7728 34.4529C51.3711 33.8588 53.4788 34.5848 55.0958 36.6308Z" fill="#F7FAFD"/>
<path fill-rule="evenodd" clip-rule="evenodd" d="M27.6967 32.1345C27.7929 33.1938 28.2145 34.1071 28.9613 34.8744C29.4149 35.2173 29.8832 35.5216 30.3664 35.7877C30.2773 35.9911 30.1133 36.0846 29.8746 36.0688C28.7397 35.9367 27.7796 35.4684 26.9941 34.6637C27.2073 34.6652 27.3713 34.7588 27.4859 34.9447C27.6145 34.8283 27.7081 34.6878 27.767 34.5231C27.8479 33.8959 27.7776 33.2871 27.5562 32.6965C27.5577 32.4794 27.6045 32.2921 27.6967 32.1345Z" fill="#1553AC"/>
<path fill-rule="evenodd" clip-rule="evenodd" d="M45.1206 34.9447C45.171 35.2076 45.3115 35.4183 45.5421 35.577C46.1989 35.6238 46.8545 35.6004 47.5093 35.5067C47.4872 35.3138 47.5107 35.1264 47.5795 34.9447C47.7035 35.4068 47.797 35.8753 47.8606 36.3498C48.0117 36.7122 48.2693 36.9464 48.6334 37.0523C48.4885 37.1576 48.3245 37.2512 48.1416 37.3334C48.0948 37.2396 48.0479 37.1461 48.0011 37.0523C47.7511 37.2809 47.4466 37.4682 47.0877 37.6144C46.5725 37.7081 46.0574 37.8017 45.5421 37.8954C45.9637 37.9891 46.3852 38.0827 46.8067 38.1764C46.7599 38.2701 46.713 38.3637 46.6662 38.4574C46.8583 38.6457 47.0456 38.833 47.2283 39.0195C46.3412 38.7156 45.4279 38.5283 44.4883 38.4574C42.3978 38.6692 40.4539 39.3015 38.6571 40.3543C38.1603 40.8041 37.7153 41.2959 37.3222 41.8297C37.2285 40.5651 37.2285 39.3005 37.3222 38.0359C37.5785 36.9366 38.2578 36.2573 39.3597 35.9985C39.9197 35.9284 40.4818 35.9049 41.0458 35.9283C41.7967 35.9516 42.546 35.9281 43.294 35.858C43.9442 35.619 44.5531 35.3145 45.1206 34.9447Z" fill="#033083"/>
<path fill-rule="evenodd" clip-rule="evenodd" d="M25.3094 32.1345C25.5955 32.6612 25.8531 33.2233 26.0822 33.8206C26.3685 34.1306 26.6728 34.4116 26.9956 34.6637C27.781 35.4684 28.7411 35.9367 29.876 36.0688C30.1148 36.0846 30.2787 35.9911 30.3678 35.7877C31.4212 35.8216 32.4516 35.9856 33.4591 36.2795C34.1837 36.652 34.6052 37.2375 34.7237 38.0359C34.7695 39.2326 34.7227 40.4035 34.5831 41.5487C33.8391 40.6888 32.9493 40.0097 31.9134 39.5113C30.5713 39.1171 29.2131 38.7893 27.8386 38.5277C26.3821 38.3571 25.0707 38.7084 23.9043 39.5815C23.8949 39.1226 24.129 38.9119 24.6069 38.9492C24.4737 38.8814 24.3332 38.858 24.1853 38.879C24.2354 38.4485 24.1183 38.0737 23.8341 37.7549C23.6343 37.7417 23.4235 37.6948 23.2018 37.6144C23.3686 37.4712 23.5091 37.3072 23.6233 37.1226C22.546 37.0289 21.4688 37.0289 20.3916 37.1226C20.105 37.6207 19.6835 37.9252 19.127 38.0359C19.3275 37.5773 19.6554 37.226 20.1105 36.9821C21.2921 36.969 22.4631 36.8753 23.6233 36.7011C24.1764 36.2171 24.3169 35.6316 24.0448 34.9447C24.0406 34.8046 24.1109 34.7109 24.2556 34.6637C24.668 34.9014 25.113 34.995 25.5905 34.9447C25.5905 35.132 25.5905 35.3194 25.5905 35.5067C27.0373 35.1866 27.0373 34.7886 25.5905 34.3124C25.7551 34.2535 25.8956 34.1599 26.012 34.0314C25.6001 33.4652 25.3659 32.8329 25.3094 32.1345Z" fill="#063282"/>
<path fill-rule="evenodd" clip-rule="evenodd" d="M56.924 44.0779C56.946 44.2708 56.9226 44.4582 56.8537 44.6399C56.5349 44.4861 56.2304 44.533 55.9404 44.7804C55.8099 44.6134 55.7631 44.4261 55.7999 44.2184C55.4472 44.0381 55.0725 43.8976 54.6758 43.7969C54.615 44.3721 54.2871 44.6531 53.6922 44.6399C53.5049 44.6399 53.3175 44.6399 53.1302 44.6399C53.3383 44.5105 53.5256 44.3465 53.6922 44.1481C53.6103 43.7381 53.4933 43.3401 53.3409 42.9538C53.2472 43.0475 53.1536 43.1411 53.0599 43.2348C52.656 43.0642 52.3984 42.7597 52.2871 42.3215C52.344 42.1887 52.4377 42.095 52.5681 42.0405C52.5213 41.9937 52.4744 41.9468 52.4276 41.9C53.3893 41.8948 54.3261 41.7543 55.2378 41.4784C55.3883 41.3587 55.5288 41.2417 55.6594 41.1272C56.0274 40.7844 56.4254 40.4566 56.8537 40.1436C56.9998 39.6706 57.2809 39.2959 57.6968 39.0195C57.9782 38.2179 58.2359 37.4217 58.4696 36.6308C59.2947 36.7099 59.9036 36.3821 60.2962 35.6472C61.4965 36.8594 61.8945 38.3113 61.4906 40.0031C60.7844 42.324 59.2153 43.5886 56.7835 43.7969C56.8345 43.8928 56.8813 43.9865 56.924 44.0779Z" fill="#011D47"/>
<path fill-rule="evenodd" clip-rule="evenodd" d="M23.9034 39.5815C23.8566 39.722 23.7629 39.8158 23.6224 39.8626C23.5894 39.7787 23.5191 39.7319 23.4116 39.722C23.229 39.8916 23.0182 39.9854 22.7793 40.0031C22.8085 40.3431 22.7616 40.6709 22.6388 40.9866C21.5715 41.1845 20.4943 41.2782 19.4071 41.2677C18.6432 41.2949 18.1749 41.2481 18.002 41.1272C18.0368 40.4704 18.1773 39.8616 18.4235 39.3005C18.5802 38.8246 18.8144 38.4031 19.126 38.0359C19.6826 37.9252 20.1041 37.6207 20.3906 37.1226C21.4679 37.0289 22.5451 37.0289 23.6224 37.1226C23.5082 37.3072 23.3676 37.4712 23.2009 37.6144C23.4226 37.6948 23.6333 37.7417 23.8332 37.7549C24.1174 38.0737 24.2345 38.4485 24.1844 38.879C24.3322 38.858 24.4728 38.8814 24.606 38.9492C24.1281 38.9119 23.894 39.1226 23.9034 39.5815Z" fill="#033B97"/>
<path fill-rule="evenodd" clip-rule="evenodd" d="M58.187 36.4903C58.3264 36.4661 58.42 36.5131 58.468 36.6308C58.2343 37.4217 57.9766 38.2179 57.6952 39.0195C57.2793 39.2959 56.9983 39.6706 56.8521 40.1436C56.4239 40.4566 56.0258 40.7844 55.6578 41.1271C54.7477 41.332 53.8344 41.5193 52.9178 41.6892C51.7007 41.5675 50.5064 41.3802 49.3348 41.1271C48.8626 40.1866 48.16 39.484 47.2271 39.0195C47.0445 38.833 46.8572 38.6457 46.6651 38.4574C46.7119 38.3637 46.7588 38.2701 46.8056 38.1764C46.3841 38.0827 45.9625 37.9891 45.541 37.8954C46.0563 37.8017 46.5714 37.7081 47.0866 37.6144C47.4455 37.4682 47.75 37.2809 48 37.0523C48.0467 37.1461 48.0937 37.2396 48.1405 37.3334C48.3234 37.2512 48.4874 37.1576 48.6323 37.0523C49.7095 37.0523 50.7867 37.0523 51.864 37.0523C52.2427 37.1132 52.5472 37.3005 52.7773 37.6144C53.1713 38.3344 53.6163 39.0136 54.1122 39.6518C55.5256 39.8776 56.0642 39.2921 55.728 37.8954C55.5155 37.4701 55.3047 37.0485 55.0958 36.6308C54.8858 36.0192 55.0498 35.9254 55.5875 36.3498C55.7608 35.9568 55.9716 35.5822 56.2198 35.2257C56.7 35.5756 57.0746 35.4584 57.3439 34.8744C57.4771 34.8065 57.6176 34.7832 57.7655 34.8042C57.7761 35.4283 57.5888 35.9669 57.2034 36.42C57.4731 36.6918 57.6838 36.6683 57.8357 36.3498C57.93 36.4554 58.047 36.5024 58.187 36.4903Z" fill="#053892"/>
<path fill-rule="evenodd" clip-rule="evenodd" d="M34.7245 38.0359C34.8871 39.2758 34.9105 40.5404 34.7948 41.8297C34.694 41.7533 34.6237 41.6596 34.584 41.5487C34.7235 40.4035 34.7703 39.2326 34.7245 38.0359Z" fill="#3E5789"/>
<path fill-rule="evenodd" clip-rule="evenodd" d="M13.9274 36.3498C13.9947 36.7101 14.0883 37.0613 14.2084 37.4036C14.574 37.5638 14.9488 37.6808 15.3325 37.7549C15.287 38.2017 15.4744 38.3657 15.8945 38.2467C16.1175 37.9086 16.3516 37.6043 16.5971 37.3334C16.2745 38.024 16.251 38.7265 16.5268 39.441C17.1943 39.8374 17.8266 39.7905 18.4237 39.3005C18.1776 39.8616 18.0371 40.4704 18.0022 41.1272C18.1752 41.2481 18.6435 41.2949 19.4073 41.2677C20.4946 41.2782 21.5717 41.1845 22.6391 40.9866C22.7619 40.6709 22.8088 40.3431 22.7796 40.0031C23.0184 39.9854 23.2292 39.8916 23.4119 39.722C23.5194 39.7319 23.5896 39.7787 23.6226 39.8626C23.2709 40.2844 22.9899 40.7527 22.7796 41.2677C20.9095 41.5907 19.0361 41.6142 17.1591 41.3379C16.8178 41.1946 16.4899 41.0308 16.1756 40.8461C14.7658 39.7655 13.8758 38.3604 13.5059 36.6308C13.6169 36.5042 13.7574 36.4105 13.9274 36.3498Z" fill="#053A8D"/>
<path fill-rule="evenodd" clip-rule="evenodd" d="M45.1213 41.1272C44.4226 41.2205 43.72 41.2672 43.0137 41.2677C43.7051 40.9876 44.4077 40.9408 45.1213 41.1272Z" fill="#5271B0"/>
<path fill-rule="evenodd" clip-rule="evenodd" d="M45.1216 41.1271C46.126 41.1486 46.8285 41.617 47.2293 42.5323C46.142 42.4822 45.0647 42.5525 43.9975 42.743C43.4388 43.1332 43.111 43.6718 43.0139 44.3589C42.6934 44.2995 42.4592 44.3932 42.3114 44.6399C41.9342 44.9731 41.7468 45.3946 41.7493 45.9045C41.5017 45.4497 41.127 45.1217 40.6252 44.9209C39.9321 44.6423 39.2295 44.4081 38.5176 44.2184C39.5637 42.5665 41.0625 41.583 43.0139 41.2677C43.7203 41.2672 44.4228 41.2204 45.1216 41.1271Z" fill="#0C449E"/>
<path fill-rule="evenodd" clip-rule="evenodd" d="M49.338 41.1271C50.5096 41.3802 51.704 41.5675 52.9211 41.6892C53.8376 41.5193 54.7509 41.332 55.661 41.1271C55.5305 41.2417 55.39 41.3587 55.2395 41.4784C54.3277 41.7542 53.3909 41.8948 52.4293 41.9C52.4761 41.9467 52.523 41.9937 52.5698 42.0405C52.4394 42.095 52.3457 42.1887 52.2888 42.3215C52.4001 42.7597 52.6576 43.0642 53.0616 43.2348C53.1553 43.1411 53.2489 43.0475 53.3426 42.9538C53.4949 43.34 53.612 43.7381 53.6939 44.1481C53.5272 44.3465 53.3399 44.5105 53.1318 44.6399C52.3627 44.9405 51.9879 45.5025 52.0077 46.326C50.4707 46.51 48.9251 46.51 47.3709 46.326C46.4081 46.0431 45.565 45.5513 44.8417 44.8507C44.5544 44.7818 44.2733 44.8053 43.9986 44.9209C43.4859 44.5233 42.9239 44.4296 42.3125 44.6399C42.4603 44.3932 42.6945 44.2995 43.0151 44.3589C43.1121 43.6718 43.44 43.1332 43.9986 42.743C45.0658 42.5525 46.1431 42.4822 47.2304 42.5323C48.6443 43.1592 49.3469 42.6907 49.338 41.1271Z" fill="#012866"/>
<path fill-rule="evenodd" clip-rule="evenodd" d="M16.4563 41.4082C17.572 41.6097 18.6961 41.7502 19.8286 41.8297C20.5489 41.8115 21.2514 41.7412 21.9363 41.619C21.8426 41.7127 21.749 41.8063 21.6553 41.9C21.2074 42.0249 20.7626 42.1419 20.3204 42.2512C19.9104 42.8729 19.7231 43.5754 19.7584 44.3589C19.4315 44.4123 19.174 44.5528 18.9855 44.7804C18.34 44.662 17.8248 44.8494 17.4399 45.3425C17.2643 45.3533 17.1472 45.447 17.0886 45.6235C16.8987 45.3293 16.8284 45.0015 16.8779 44.6399C16.7374 44.6399 16.5969 44.6399 16.4563 44.6399C16.4333 44.2624 16.4568 43.8876 16.5266 43.5158C16.6687 43.3982 16.8326 43.3514 17.0184 43.3753C17.0184 43.0006 17.0184 42.626 17.0184 42.2512C18.113 42.3013 18.2067 42.114 17.2994 41.6892C17.0344 41.8901 16.8002 42.1244 16.5969 42.3918C15.9484 41.8928 16.042 41.6351 16.8779 41.619C16.7041 41.5864 16.5636 41.5161 16.4563 41.4082Z" fill="#002250"/>
<path fill-rule="evenodd" clip-rule="evenodd" d="M33.8815 44.4994C33.1054 44.4549 32.3093 44.5251 31.4928 44.7102C31.2118 44.8975 30.9775 45.1317 30.7902 45.4127C30.6389 45.4788 30.4984 45.4553 30.3687 45.3425C30.275 45.1552 30.1814 44.9677 30.0877 44.7804C30.0107 44.4174 29.7765 44.2768 29.3851 44.3589C29.4284 44.0183 29.3815 43.6905 29.2446 43.3753C28.5565 42.6776 27.7135 42.3965 26.7154 42.5323C26.2585 42.5352 25.8135 42.582 25.3806 42.6728C25.3474 42.4453 25.2304 42.3048 25.0293 42.2512C25.2416 41.7347 25.6162 41.3834 26.1534 41.1974C28.7459 40.8588 31.0174 41.5379 32.9682 43.2348C33.3068 43.6419 33.6113 44.0634 33.8815 44.4994Z" fill="#0640A1"/>
<path fill-rule="evenodd" clip-rule="evenodd" d="M16.1777 40.8461C16.4921 41.0308 16.82 41.1946 17.1613 41.3379C19.0383 41.6142 20.9117 41.5907 22.7817 41.2677C22.7432 42.583 23.3522 43.0513 24.6084 42.6728C24.6178 43.1317 24.3837 43.3424 23.9058 43.3051C24.0739 43.397 24.0739 43.4672 23.9058 43.5158C23.7185 43.3753 23.5311 43.2348 23.3438 43.0943C23.297 43.1646 23.2501 43.2348 23.2033 43.3051C23.4319 44.154 23.385 44.9736 23.0628 45.764C23.7583 45.9427 24.4608 46.013 25.1704 45.9748C25.8419 45.5327 26.4976 45.0879 27.1376 44.6399C27.6444 44.501 28.1597 44.454 28.6832 44.4994C28.6364 44.6399 28.5427 44.7336 28.4022 44.7804C28.2524 44.6129 28.1353 44.6597 28.0509 44.9209C27.1027 44.9024 26.3066 45.2771 25.6622 46.045C24.068 46.4597 22.4521 46.5534 20.8146 46.3261C20.5049 46.2269 20.2239 46.0863 19.9715 45.9045C19.8441 45.3555 19.5163 44.9808 18.988 44.7804C19.1764 44.5528 19.4339 44.4123 19.7608 44.3589C19.7255 43.5754 19.9128 42.8729 20.3228 42.2512C20.765 42.1419 21.2098 42.0249 21.6577 41.9C21.7514 41.8062 21.845 41.7127 21.9387 41.6189C21.2538 41.7412 20.5513 41.8114 19.831 41.8297C18.6985 41.7502 17.5744 41.6097 16.4588 41.4082C16.2752 41.2723 16.1815 41.0849 16.1777 40.8461Z" fill="#022865"/>
<path fill-rule="evenodd" clip-rule="evenodd" d="M25.0297 42.2512C25.2307 42.3048 25.3478 42.4453 25.3809 42.6728C25.8138 42.582 26.2588 42.5352 26.7158 42.5323C27.7138 42.3965 28.5569 42.6776 29.245 43.3753C29.3818 43.6905 29.4288 44.0183 29.3855 44.3589C29.7768 44.2768 30.011 44.4174 30.088 44.7804C29.6475 44.5664 29.1792 44.4727 28.6829 44.4994C28.1594 44.454 27.6441 44.501 27.1373 44.6399C26.4973 45.0879 25.8417 45.5327 25.1702 45.9748C24.4606 46.013 23.758 45.9427 23.0625 45.764C23.3847 44.9736 23.4316 44.154 23.203 43.3051C23.2498 43.2348 23.2967 43.1646 23.3435 43.0943C23.5308 43.2348 23.7183 43.3753 23.9056 43.5158C24.0736 43.4672 24.0736 43.397 23.9056 43.3051C24.3834 43.3425 24.6175 43.1317 24.6081 42.6728C24.7954 42.5791 24.9359 42.4385 25.0297 42.2512Z" fill="#01296D"/>
<path fill-rule="evenodd" clip-rule="evenodd" d="M56.9236 44.0779C58.6502 45.7304 59.0952 47.6976 58.2584 49.9793C57.3271 51.87 55.8048 52.8067 53.6918 52.7895C54.0425 54.8995 53.4337 56.6558 51.8652 58.0587C51.0842 58.5298 50.2412 58.7875 49.336 58.8315C49.6425 56.281 48.5653 54.6651 46.1042 53.9839C44.8397 53.8902 43.5751 53.8902 42.3105 53.9839C41.4517 54.4466 41.2409 55.1258 41.6782 56.0213C41.805 56.19 41.9689 56.3072 42.1699 56.3726C43.5422 56.3797 44.9005 56.4735 46.2448 56.6536C47.0984 57.5949 47.1686 58.6019 46.4555 59.6746C44.9966 61.0638 43.2871 61.462 41.3269 60.8689C38.9518 59.7807 37.6404 57.9306 37.3926 55.3187C37.3926 53.1174 37.3926 50.9161 37.3926 48.7147C37.8931 49.127 38.4083 49.5017 38.9382 49.8388C39.2541 50.3188 39.6756 50.6701 40.2028 50.8926C41.1182 51.2495 41.9613 51.718 42.732 52.2978C42.9616 52.3672 43.1958 52.3905 43.4345 52.368C43.4345 52.7428 43.4345 53.1174 43.4345 53.4921C45.3996 53.6402 47.3667 53.7105 49.336 53.7029C49.6394 53.5747 49.9437 53.4577 50.2493 53.3516C50.2927 53.1737 50.363 53.0097 50.4601 52.8598C50.2863 52.8272 50.1458 52.7569 50.0386 52.649C51.1643 52.5553 51.6093 51.9463 51.3734 50.8224C50.9153 49.5681 50.0488 48.7483 48.774 48.3635C47.4952 48.3557 46.2306 48.262 44.9802 48.0824C44.614 47.8101 44.3564 47.4588 44.2074 47.0286C44.1766 46.3145 44.1063 45.612 43.9966 44.9209C44.2713 44.8053 44.5523 44.7818 44.8397 44.8507C45.563 45.5513 46.4061 46.0431 47.3688 46.326C48.923 46.51 50.4687 46.51 52.0057 46.326C52.3396 47.4298 53.0421 47.781 54.1134 47.3799C55.1432 46.2741 55.0027 45.3607 53.6918 44.6399C54.2868 44.6531 54.6146 44.3721 54.6754 43.7969C55.0721 43.8976 55.4468 44.0381 55.7995 44.2184C55.7627 44.4261 55.8095 44.6134 55.94 44.7804C56.23 44.533 56.5345 44.4861 56.8533 44.6399C56.9222 44.4582 56.9456 44.2708 56.9236 44.0779Z" fill="#011D43"/>
<path fill-rule="evenodd" clip-rule="evenodd" d="M28.6805 44.4994C29.1768 44.4727 29.6451 44.5664 30.0856 44.7804C30.1794 44.9677 30.2729 45.1552 30.3667 45.3425C30.3667 46.0918 30.3667 46.8413 30.3667 47.5907C30.048 49.2449 29.0644 50.2987 27.4159 50.7522C26.1981 50.7989 24.9805 50.8459 23.7627 50.8927C23.2158 51.4962 22.6537 52.0817 22.0765 52.649C20.8975 52.6212 20.4525 52.0124 20.7417 50.8224C21.1272 49.7341 21.8533 48.9613 22.9196 48.504C24.1842 48.4572 25.4488 48.4103 26.7134 48.3635C27.2438 48.1609 27.6419 47.8096 27.9077 47.3096C27.9545 46.6539 28.0014 45.9982 28.0482 45.3425C28.1413 45.134 28.2584 44.9467 28.3995 44.7804C28.54 44.7337 28.6337 44.6399 28.6805 44.4994Z" fill="#F7F9FC"/>
<path fill-rule="evenodd" clip-rule="evenodd" d="M43.9976 44.9209C44.1074 45.612 44.1776 46.3145 44.2084 47.0286C44.3575 47.4588 44.615 47.8101 44.9812 48.0824C46.2316 48.262 47.4962 48.3557 48.775 48.3635C50.0498 48.7483 50.9164 49.5681 51.3744 50.8224C51.6104 51.9463 51.1654 52.5553 50.0396 52.649C49.406 52.3437 48.9845 51.8519 48.775 51.1737C48.5877 51.08 48.4002 50.9864 48.2129 50.8927C47.0421 50.8459 45.8711 50.7989 44.7002 50.7521C44.3053 50.6248 43.9307 50.4609 43.5761 50.2604C42.2372 49.1267 41.6283 47.6747 41.7494 45.9045C41.7469 45.3946 41.9344 44.9731 42.3115 44.6399C42.9229 44.4296 43.4849 44.5233 43.9976 44.9209Z" fill="#F5F8FC"/>
<path fill-rule="evenodd" clip-rule="evenodd" d="M53.1287 44.6399C53.316 44.6399 53.5035 44.6399 53.6908 44.6399C55.0016 45.3608 55.1421 46.2741 54.1123 47.3799C53.0411 47.7811 52.3385 47.4298 52.0047 46.3261C51.9848 45.5025 52.3596 44.9405 53.1287 44.6399Z" fill="#F3F7FA"/>
<path fill-rule="evenodd" clip-rule="evenodd" d="M33.8793 44.4994C34.3317 45.2763 34.6128 46.1194 34.7224 47.0286C34.7721 47.6099 34.7018 48.1719 34.5116 48.7147C33.7936 49.4113 33.0208 50.0201 32.1932 50.5414C31.4309 50.4502 30.7049 50.2629 30.0152 49.9793C29.7148 49.6075 29.7616 49.2797 30.1558 48.9958C30.2139 49.06 30.2842 49.1069 30.3665 49.1363C30.7097 48.9871 30.9907 48.7763 31.2096 48.504C30.9481 48.0373 30.6905 48.0607 30.4368 48.5742C30.3669 48.2496 30.3436 47.9218 30.3665 47.5907C30.3665 46.8413 30.3665 46.0918 30.3665 45.3425C30.4962 45.4553 30.6367 45.4788 30.7881 45.4127C30.9754 45.1317 31.2096 44.8975 31.4906 44.7102C32.3071 44.5251 33.1033 44.4549 33.8793 44.4994Z" fill="#022A6E"/>
<path fill-rule="evenodd" clip-rule="evenodd" d="M38.5175 44.2184C39.2295 44.4081 39.932 44.6423 40.6252 44.9209C41.1269 45.1217 41.5017 45.4497 41.7492 45.9045C41.6281 47.6747 42.237 49.1267 43.5759 50.2604C43.5638 50.4003 43.6107 50.5173 43.7164 50.6116C43.9974 50.7054 44.2784 50.7989 44.5595 50.8927C44.4424 51.0097 44.3252 51.1269 44.2082 51.2439C43.9484 50.8745 43.644 50.8043 43.2949 51.0332C43.851 51.3291 43.9915 51.7741 43.7164 52.368C42.0691 51.6025 40.4765 50.7594 38.939 49.8388C38.4092 49.5017 37.8939 49.127 37.3934 48.7147C37.3782 47.9602 37.425 47.2108 37.5339 46.4666C37.7091 45.6479 38.0371 44.8986 38.5175 44.2184Z" fill="#022B73"/>
<path fill-rule="evenodd" clip-rule="evenodd" d="M13.5067 36.6308C13.8767 38.3604 14.7667 39.7655 16.1764 40.8461C16.1802 41.0849 16.2739 41.2723 16.4575 41.4082C16.5647 41.5161 16.7052 41.5863 16.879 41.6189C16.0431 41.6351 15.9495 41.8928 16.598 42.3918C16.8013 42.1244 17.0355 41.8901 17.3005 41.6892C18.2078 42.114 18.1141 42.3013 17.0195 42.2512C17.0195 42.626 17.0195 43.0006 17.0195 43.3753C16.8337 43.3514 16.6698 43.3982 16.5277 43.5158C16.4579 43.8876 16.4344 44.2624 16.4575 44.6399C16.598 44.6399 16.7385 44.6399 16.879 44.6399C16.8295 45.0015 16.8998 45.3293 17.0898 45.6235C17.1483 45.447 17.2654 45.3533 17.441 45.3425C17.0007 46.2689 17.2348 46.9947 18.1436 47.5204C19.3881 47.7046 19.9969 47.166 19.9702 45.9045C20.2226 46.0863 20.5036 46.2269 20.8133 46.3261C22.4508 46.5534 24.0667 46.4597 25.6609 46.045C26.3053 45.2771 27.1014 44.9024 28.0496 44.921C28.134 44.6597 28.2511 44.613 28.4009 44.7804C28.2598 44.9467 28.1426 45.134 28.0496 45.3425C28.0028 45.9982 27.9559 46.6539 27.9091 47.3096C27.6432 47.8096 27.2452 48.1608 26.7147 48.3635C25.4501 48.4103 24.1856 48.4572 22.921 48.504C21.8546 48.9613 21.1286 49.7341 20.743 50.8224C20.4539 52.0124 20.8989 52.6212 22.0779 52.649C22.2969 53.4025 22.6482 53.4962 23.1317 52.9301C23.1744 53.2028 23.2915 53.4369 23.483 53.6326C25.2603 53.7266 27.0402 53.7266 28.8224 53.6326C28.7779 53.201 28.8247 52.7794 28.9629 52.368C30.0631 51.7842 31.1403 51.1754 32.1947 50.5414C33.0223 50.0201 33.7951 49.4113 34.5131 48.7147C34.7033 48.1719 34.7736 47.6099 34.7239 47.0286C34.8873 49.9085 34.9106 52.8125 34.7941 55.7403C34.0077 59.6337 31.6425 61.3901 27.6983 61.0094C25.9595 60.5023 25.1398 59.3548 25.2394 57.5669C25.3363 57.1881 25.5471 56.8836 25.8717 56.6536C27.2159 56.4735 28.5743 56.3797 29.9465 56.3726C30.7327 56.0418 30.9902 55.4563 30.7193 54.6162C30.5004 54.355 30.2428 54.1442 29.9465 53.9839C28.5414 53.8902 27.1363 53.8902 25.7312 53.9839C23.514 54.7897 22.5305 56.3588 22.7804 58.691C20.5333 58.674 19.1047 57.5499 18.4949 55.3188C18.4247 54.6177 18.4013 53.9152 18.4246 53.2111C18.5516 53.1115 18.5984 52.971 18.5651 52.7896C18.2373 52.7896 17.9094 52.7896 17.5815 52.7896C14.339 51.9087 13.0041 49.801 13.577 46.4666C13.9221 45.4952 14.4139 44.6054 15.0523 43.7969C12.5832 43.5059 11.0609 42.1475 10.4857 39.722C10.2858 38.1677 10.7073 36.8095 11.7503 35.6472C12.0998 36.3957 12.6852 36.7235 13.5067 36.6308Z" fill="#031E44"/>
<path fill-rule="evenodd" clip-rule="evenodd" d="M18.9859 44.7804C19.5142 44.9808 19.842 45.3555 19.9694 45.9045C19.9961 47.166 19.3873 47.7046 18.1428 47.5204C17.234 46.9947 16.9999 46.2689 17.4402 45.3425C17.8251 44.8494 18.3404 44.662 18.9859 44.7804Z" fill="#F5F8FA"/>
<path fill-rule="evenodd" clip-rule="evenodd" d="M30.3683 47.5907C30.3454 47.9218 30.3687 48.2497 30.4385 48.5742C30.6923 48.0607 30.9498 48.0373 31.2113 48.504C30.9924 48.7763 30.7114 48.9871 30.3683 49.1363C30.2859 49.1069 30.2157 49.06 30.1575 48.9958C29.7634 49.2797 29.7166 49.6076 30.017 49.9793C30.7066 50.2629 31.4326 50.4502 32.1949 50.5414C31.1405 51.1754 30.0634 51.7842 28.9632 52.368C28.8249 52.7794 28.7781 53.201 28.8226 53.6326C27.0404 53.7266 25.2606 53.7266 23.4832 53.6326C23.2917 53.4369 23.1747 53.2028 23.132 52.9301C22.6485 53.4962 22.2972 53.4025 22.0781 52.649C22.6553 52.0817 23.2174 51.4962 23.7643 50.8927C24.9821 50.8459 26.1997 50.7989 27.4175 50.7522C29.066 50.2987 30.0496 49.2449 30.3683 47.5907Z" fill="#022761"/>
<path fill-rule="evenodd" clip-rule="evenodd" d="M38.9375 49.8388C40.475 50.7595 42.0675 51.6025 43.7149 52.368C43.99 51.7741 43.8495 51.3291 43.2933 51.0332C43.6425 50.8043 43.9469 50.8745 44.2067 51.2439C44.3237 51.1269 44.4409 51.0097 44.5579 50.8927C44.2769 50.7989 43.9959 50.7054 43.7149 50.6116C43.6092 50.5174 43.5623 50.4003 43.5744 50.2604C43.929 50.4609 44.3036 50.6249 44.6984 50.7522C45.8693 50.7989 47.0403 50.8459 48.2112 50.8927C48.3985 50.9864 48.586 51.08 48.7733 51.1737C48.9828 51.8519 49.4043 52.3437 50.0379 52.649C50.1451 52.757 50.2856 52.8272 50.4594 52.8598C50.3623 53.0097 50.292 53.1737 50.2486 53.3516C49.943 53.4577 49.6387 53.5747 49.3353 53.7029C47.366 53.7105 45.3989 53.6402 43.4338 53.4921C43.4338 53.1174 43.4338 52.7428 43.4338 52.368C43.1951 52.3905 42.9609 52.3672 42.7313 52.2978C41.9606 51.718 41.1175 51.2496 40.2021 50.8927C39.6749 50.6701 39.2534 50.3188 38.9375 49.8388Z" fill="#022561"/>
<path fill-rule="evenodd" clip-rule="evenodd" d="M37.5335 46.4666C37.4246 47.2109 37.3778 47.9602 37.393 48.7147C37.393 50.9161 37.393 53.1174 37.393 55.3188C37.2297 52.5326 37.2062 49.7223 37.3227 46.8881C37.3553 46.7143 37.4256 46.5738 37.5335 46.4666Z" fill="#7E91B0"/>
<path fill-rule="evenodd" clip-rule="evenodd" d="M17.5801 52.7896C17.9079 52.7896 18.2358 52.7896 18.5637 52.7896C18.597 52.971 18.5502 53.1115 18.4231 53.2111C18.1905 52.9919 17.9094 52.8514 17.5801 52.7896Z" fill="#5C6D8B"/>
<path fill-rule="evenodd" clip-rule="evenodd" d="M18.7055 67.5432C18.6011 67.0042 18.2732 66.77 17.7219 66.8406C17.7504 66.5751 17.6568 66.3643 17.4409 66.2083C17.5706 65.9216 17.6173 65.6171 17.5814 65.295C17.3941 65.295 17.2066 65.295 17.0193 65.295C17.0193 65.1077 17.0193 64.9203 17.0193 64.733C16.7394 64.7571 16.5053 64.6634 16.3168 64.452C16.0818 64.757 15.8243 65.038 15.544 65.295C15.3162 65.2634 15.1522 65.1464 15.0522 64.9437C15.3196 63.7722 15.4133 62.5778 15.3332 61.3607C14.9585 61.3607 14.5839 61.3607 14.2091 61.3607C14.2091 61.6417 14.2091 61.9228 14.2091 62.2038C14.0218 62.2038 13.8344 62.2038 13.6471 62.2038C13.6471 61.9228 13.6471 61.6417 13.6471 61.3607C13.2723 61.3607 12.8977 61.3607 12.523 61.3607C12.523 61.1734 12.523 60.986 12.523 60.7987C12.3357 60.7987 12.1482 60.7987 11.9609 60.7987C11.9609 60.2366 11.9609 59.6746 11.9609 59.1125C12.523 59.1125 13.085 59.1125 13.6471 59.1125C13.6471 58.9252 13.6471 58.7378 13.6471 58.5505C14.5418 58.5041 15.4318 58.5511 16.3168 58.691C16.5717 59.2952 16.8527 59.342 17.1598 58.8315C17.3745 59.2882 17.5618 59.7565 17.7219 60.2366C17.8042 60.2073 17.8745 60.1603 17.9326 60.0961C18.251 60.3007 18.6023 60.4179 18.9865 60.4474C18.7992 60.5411 18.7992 60.6347 18.9865 60.7284C18.7844 60.7592 18.5971 60.8294 18.4244 60.9392C18.679 61.4168 18.7728 61.932 18.7055 62.4848C19.0802 62.4848 19.4548 62.4848 19.8295 62.4848C19.8295 62.8595 19.8295 63.2341 19.8295 63.6089C20.2043 63.6089 20.5789 63.6089 20.9536 63.6089C20.9536 63.9836 20.9536 64.3582 20.9536 64.733C21.3284 64.733 21.703 64.733 22.0777 64.733C22.0777 64.3582 22.0777 63.9836 22.0777 63.6089C22.4525 63.6089 22.8271 63.6089 23.2018 63.6089C23.2018 64.733 23.2018 65.8571 23.2018 66.9812C22.4525 66.9812 21.703 66.9812 20.9536 66.9812C20.9147 67.3954 20.9615 67.7934 21.0941 68.1755C20.6251 68.2457 20.3909 68.035 20.3916 67.5432C20.1117 67.5674 19.8776 67.4736 19.689 67.2622C19.3914 67.4654 19.0636 67.5591 18.7055 67.5432Z" fill="#001B3F"/>
</svg>
