<svg width="51" height="51" viewBox="0 0 51 51" fill="none" xmlns="http://www.w3.org/2000/svg">
<path fill-rule="evenodd" clip-rule="evenodd" d="M50.7715 21.9657C50.2285 21.9773 49.6644 21.9773 49.0795 21.9657C49.0795 21.7002 49.0795 21.4349 49.0795 21.1694C48.8141 21.1694 48.5487 21.1694 48.2833 21.1694C48.2833 20.904 48.2833 20.6386 48.2833 20.3732C48.0178 20.3732 47.7525 20.3732 47.4871 20.3732C47.4871 20.1078 47.4871 19.8424 47.4871 19.577C47.2216 19.577 46.9563 19.577 46.6908 19.577C46.6908 19.8424 46.6908 20.1078 46.6908 20.3732C46.4254 20.3732 46.1601 20.3732 45.8946 20.3732C45.8946 20.1078 45.8946 19.8424 45.8946 19.577C45.6292 19.577 45.3638 19.577 45.0984 19.577C45.0984 19.0462 45.0984 18.5153 45.0984 17.9845C44.8662 17.9845 44.6339 17.9845 44.4017 17.9845C44.4017 18.1172 44.4017 18.25 44.4017 18.3826C44.5012 18.3826 44.6007 18.3826 44.7003 18.3826C44.7003 19.3115 44.7003 20.2405 44.7003 21.1694C44.8329 21.1694 44.9657 21.1694 45.0984 21.1694C45.0984 21.4349 45.0984 21.7002 45.0984 21.9657C45.3638 21.9657 45.6292 21.9657 45.8946 21.9657C45.9112 23.2931 45.8946 24.6202 45.8448 25.9468C45.6682 25.6936 45.4857 25.6936 45.2974 25.9468C45.3449 26.0441 45.4112 26.127 45.4965 26.1956C45.4899 26.8514 45.4568 27.4983 45.397 28.1364C45.5323 26.2333 44.8522 24.7072 43.3566 23.5581C43.3512 22.9387 43.235 22.3416 43.0083 21.7666C44.3648 19.0151 43.834 16.7095 41.4158 14.8494C40.9179 14.5506 40.3871 14.3349 39.8234 14.2024C39.5139 11.6042 38.0874 10.0117 35.5437 9.42508C35.3232 9.34864 35.091 9.28226 34.847 9.22602C34.1379 7.12846 32.6782 5.95064 30.4677 5.69277C28.3555 5.55452 26.7299 6.36727 25.5908 8.13121C23.7147 5.69645 21.3592 5.08266 18.5243 6.28994C18.2048 6.56036 17.873 6.80918 17.529 7.0364C17.4671 6.92423 17.3842 6.8247 17.2802 6.73781C16.4759 6.83555 15.6631 6.86879 14.8418 6.83734C14.8418 6.5719 14.8418 6.30656 14.8418 6.04112C14.5763 6.04112 14.311 6.04112 14.0455 6.04112C14.0455 6.30656 14.0455 6.5719 14.0455 6.83734C13.5147 6.83734 12.9839 6.83734 12.4531 6.83734C12.4531 6.5719 12.4531 6.30656 12.4531 6.04112C12.1876 6.04112 11.9223 6.04112 11.6568 6.04112C11.6568 6.17379 11.6568 6.30656 11.6568 6.43923C11.4578 6.43923 11.2587 6.43923 11.0597 6.43923C11.0597 6.30656 11.0597 6.17379 11.0597 6.04112C10.8606 6.04112 10.6616 6.04112 10.4625 6.04112C10.4625 6.30656 10.4625 6.5719 10.4625 6.83734C10.096 6.82092 9.73117 6.83744 9.36769 6.88711C9.27464 7.12408 9.24149 7.3729 9.26817 7.63357C9.00272 7.63357 8.73738 7.63357 8.47194 7.63357C8.47194 9.22602 8.47194 10.8185 8.47194 12.4109C8.73738 12.4109 9.00272 12.4109 9.26817 12.4109C9.26817 12.6764 9.26817 12.9417 9.26817 13.2072C9.1355 13.2072 9.00272 13.2072 8.87005 13.2072C8.8389 13.4806 8.87204 13.746 8.96958 14.0034C9.17093 13.8369 9.40313 13.7705 9.66628 13.8043C9.6195 14.0876 9.70241 14.3198 9.9151 14.501C10.1247 14.3228 10.3735 14.2564 10.6616 14.302C10.1052 14.5472 9.57442 14.8458 9.06911 15.1977C9.03826 15.0745 8.98849 15.0745 8.91982 15.1977C8.88886 15.0741 8.93863 14.9746 9.06911 14.8991C8.96958 14.7996 8.87005 14.7001 8.77052 14.6006C8.65 14.6776 8.65 14.7605 8.77052 14.8494C8.66473 14.9676 8.53196 15.0174 8.37241 14.9987C8.40555 14.7996 8.4388 14.6006 8.47194 14.4015C8.33927 14.4015 8.2065 14.4015 8.07383 14.4015C8.07383 14.5342 8.07383 14.6669 8.07383 14.7996C7.80838 14.7996 7.54304 14.7996 7.2776 14.7996C7.2776 15.0651 7.2776 15.3304 7.2776 15.5958C6.87949 15.5958 6.48137 15.5958 6.08326 15.5958C6.08326 15.8613 6.08326 16.1266 6.08326 16.3921C5.81782 16.3921 5.55247 16.3921 5.28703 16.3921C5.28703 16.6575 5.28703 16.9229 5.28703 17.1883C5.02159 17.1883 4.75625 17.1883 4.4908 17.1883C4.4908 17.4537 4.4908 17.7191 4.4908 17.9845C3.96002 17.9845 3.42914 17.9845 2.89835 17.9845C2.89835 18.7807 2.89835 19.577 2.89835 20.3732C3.16379 20.3732 3.42914 20.3732 3.69458 20.3732C3.69458 21.9657 3.69458 23.5581 3.69458 25.1506C4.12583 25.1506 4.55719 25.1506 4.98845 25.1506C5.03741 25.3836 5.15356 25.5826 5.3368 25.7477C5.51306 25.4937 5.71212 25.2615 5.93397 25.051C6.04723 25.0997 6.16338 25.1329 6.28232 25.1506C5.3994 27.0656 5.51555 28.9234 6.63066 30.7242C7.06958 31.2461 7.58385 31.6774 8.17335 32.018C7.36379 34.3581 7.86143 36.3653 9.66628 38.0395C10.1664 38.4139 10.7138 38.696 11.3085 38.8855C11.5334 41.0782 12.678 42.5545 14.7422 43.3145C15.4339 43.4262 16.1305 43.4926 16.8323 43.5136C18.8478 45.3917 21.0705 45.6571 23.5007 44.3098C24.3541 43.7716 25.0176 43.0583 25.4913 42.1699C27.1352 44.7167 29.4244 45.5958 32.3588 44.8074C33.0691 44.5199 33.6663 44.0886 34.1503 43.5136C37.344 43.5708 39.2185 42.0281 39.7736 38.8855C42.8592 37.5448 43.9042 35.2557 42.9088 32.018C43.5717 31.5541 44.1356 30.9902 44.6007 30.326C44.7251 30.4889 44.891 30.605 45.0984 30.6744C45.6282 30.7241 46.159 30.7407 46.6908 30.7242C46.6908 31.7858 46.6908 32.8474 46.6908 33.9091C46.4254 33.9091 46.1601 33.9091 45.8946 33.9091C45.8946 34.9707 45.8946 36.0323 45.8946 37.094C45.6292 37.094 45.3638 37.094 45.0984 37.094C45.0984 37.8571 45.0984 38.62 45.0984 39.3831C44.9325 39.3831 44.7667 39.3831 44.6007 39.3831C44.6007 39.7149 44.6007 40.0467 44.6007 40.3784C44.7667 40.3784 44.9325 40.3784 45.0984 40.3784C45.0984 40.5775 45.0984 40.7765 45.0984 40.9756C44.7998 40.9756 44.5012 40.9756 44.2026 40.9756C44.1499 41.3634 44.2494 41.6952 44.5012 41.9709C44.427 42.0939 44.3938 42.2267 44.4017 42.369C44.5012 42.369 44.6007 42.369 44.7003 42.369C40.2611 47.276 34.7207 50.0793 28.079 50.7791C23.2149 51.2213 18.5703 50.4251 14.1451 48.3904C13.8101 48.2567 13.5116 48.0742 13.2493 47.843C7.25073 44.6109 3.21983 39.734 1.1566 33.2124C-1.31648 24.5055 0.176448 16.5764 5.63538 9.42508C12.52 1.53427 21.1292 -1.40182 31.463 0.616819C40.9014 3.25392 47.1219 9.24225 50.1246 18.5817C50.4155 19.6973 50.6312 20.8253 50.7715 21.9657Z" fill="#004371"/>
<path fill-rule="evenodd" clip-rule="evenodd" d="M34.8452 9.226C35.0222 9.40953 35.2544 9.47582 35.5419 9.42506C38.0856 10.0117 39.5122 11.6041 39.8216 14.2024C40.3853 14.3349 40.9161 14.5506 41.414 14.8494C43.8322 16.7094 44.363 19.0151 43.0065 21.7666C43.2332 22.3416 43.3494 22.9387 43.3548 23.5581C44.8504 24.7071 45.5305 26.2333 45.3952 28.1364C45.2276 28.905 44.9621 29.6349 44.599 30.326C44.1339 30.9902 43.5699 31.5541 42.907 32.018C43.9025 35.2557 42.8574 37.5448 39.7718 38.8855C39.2168 42.0281 37.3422 43.5708 34.1485 43.5135C33.6645 44.0886 33.0673 44.5199 32.357 44.8074C29.4226 45.5958 27.1334 44.7166 25.4895 42.1699C25.0158 43.0583 24.3523 43.7716 23.4989 44.3098C21.0687 45.6571 18.846 45.3916 16.8305 43.5135C16.1288 43.4925 15.4321 43.4261 14.7404 43.3145C12.6762 42.5545 11.5316 41.0782 11.3067 38.8855C10.712 38.696 10.1646 38.4139 9.66449 38.0395C7.85964 36.3653 7.362 34.3581 8.17156 32.018C7.58206 31.6774 7.06779 31.2461 6.62887 30.7241C5.51376 28.9234 5.39761 27.0656 6.28052 25.1505C6.63624 24.5125 7.11736 23.9817 7.72369 23.5581C7.71831 22.9347 7.83436 22.3376 8.07203 21.7666C6.86834 19.3347 7.20007 17.1451 9.06732 15.1977C9.57262 14.8458 10.1034 14.5472 10.6598 14.302C10.8914 14.2855 11.107 14.2192 11.3067 14.1029C11.5527 11.7658 12.7968 10.2231 15.039 9.47482C15.4314 9.37599 15.8295 9.30961 16.2334 9.27577C16.4978 8.43147 16.9292 7.68501 17.5272 7.03638C17.8712 6.80916 18.203 6.56033 18.5225 6.28992C21.3574 5.08264 23.7129 5.69643 25.589 8.13119C26.7281 6.36725 28.3537 5.5545 30.4659 5.69275C32.6764 5.95062 34.1361 7.12844 34.8452 9.226Z" fill="#F8FAFD"/>
<path fill-rule="evenodd" clip-rule="evenodd" d="M17.5297 7.03636C16.9317 7.68499 16.5003 8.43145 16.2359 9.27575C15.832 9.30959 15.4339 9.37597 15.0415 9.47481C12.7994 10.2231 11.5552 11.7657 11.3092 14.1029C11.1095 14.2192 10.8939 14.2855 10.6623 14.3019C10.3742 14.2563 10.1254 14.3227 9.91582 14.501C9.70313 14.3197 9.62022 14.0875 9.667 13.8043C9.40384 13.7705 9.17164 13.8368 8.9703 14.0033C8.87276 13.746 8.83962 13.4805 8.87077 13.2071C9.00344 13.2071 9.13621 13.2071 9.26888 13.2071C9.26888 12.9417 9.26888 12.6763 9.26888 12.4109C9.00344 12.4109 8.7381 12.4109 8.47266 12.4109C8.47266 10.8184 8.47266 9.22598 8.47266 7.63353C8.7381 7.63353 9.00344 7.63353 9.26888 7.63353C9.24221 7.37287 9.27535 7.12404 9.36841 6.88707C9.73189 6.8374 10.0968 6.82088 10.4632 6.8373C10.4632 6.57186 10.4632 6.30652 10.4632 6.04108C10.6623 6.04108 10.8613 6.04108 11.0604 6.04108C11.0604 6.17375 11.0604 6.30652 11.0604 6.43919C11.2595 6.43919 11.4585 6.43919 11.6576 6.43919C11.6576 6.30652 11.6576 6.17375 11.6576 6.04108C11.923 6.04108 12.1883 6.04108 12.4538 6.04108C12.4538 6.30652 12.4538 6.57186 12.4538 6.8373C12.9846 6.8373 13.5155 6.8373 14.0462 6.8373C14.0462 6.57186 14.0462 6.30652 14.0462 6.04108C14.3117 6.04108 14.577 6.04108 14.8425 6.04108C14.8425 6.30652 14.8425 6.57186 14.8425 6.8373C15.6638 6.86875 16.4766 6.83551 17.2809 6.73778C17.3849 6.82466 17.4678 6.92419 17.5297 7.03636Z" fill="#004371"/>
<path fill-rule="evenodd" clip-rule="evenodd" d="M22.4044 7.73309C21.6426 7.67635 20.8795 7.64311 20.1152 7.63356C20.8893 7.35587 21.6524 7.38902 22.4044 7.73309Z" fill="#3B79C4"/>
<path fill-rule="evenodd" clip-rule="evenodd" d="M31.663 7.93217C32.68 8.46953 33.244 9.31552 33.3549 10.4701C33.2188 11.0106 33.169 11.558 33.2057 12.1124C33.5343 12.4321 33.9158 12.4984 34.3502 12.3114C34.7741 12.351 34.9566 12.152 34.8976 11.7143C35.0522 11.3361 35.1849 11.3361 35.2957 11.7143C35.3289 11.6479 35.3621 11.5816 35.3953 11.5152C35.5549 11.6296 35.7207 11.6296 35.8929 11.5152C36.2493 11.6739 36.5977 11.8399 36.938 12.0128C37.0895 12.3249 37.1559 12.6566 37.137 13.0081C37.3029 13.0081 37.4688 13.0081 37.6347 13.0081C37.8145 13.7502 37.8808 14.5132 37.8337 15.2973C37.8404 15.4425 37.8072 15.5752 37.7342 15.6954C37.4226 15.957 37.124 16.239 36.8384 16.5414C36.2037 16.8861 35.5402 16.9524 34.8479 16.7404C34.5314 16.6062 34.2992 16.3905 34.1512 16.0935C34.7383 15.8361 34.9208 15.4048 34.6986 14.7996C34.5561 14.6066 34.3736 14.474 34.1512 14.4015C32.7645 14.2449 31.3711 14.2946 29.971 14.5508C29.8834 14.6858 29.8502 14.8351 29.8715 14.9987C28.7485 15.8873 28.3172 17.0485 28.5776 18.4822C28.5197 18.1506 28.4367 17.8187 28.3288 17.4869C27.7687 17.9739 27.1549 18.372 26.4875 18.6812C26.4607 17.1523 26.4939 15.6262 26.587 14.1029C26.8827 13.4709 27.3472 12.9899 27.9804 12.6598C28.6546 12.652 29.3182 12.5856 29.971 12.4607C30.326 12.0723 30.3591 11.6576 30.0705 11.2166C30.0177 11.0052 29.8849 10.8559 29.6724 10.7687C28.9765 10.719 28.2798 10.7024 27.5823 10.719C27.5605 10.602 27.5936 10.5025 27.6818 10.4204C27.808 10.5127 27.9407 10.5294 28.0799 10.4701C27.9741 10.3519 27.8414 10.3021 27.6818 10.3209C27.7682 9.74289 27.5857 9.67661 27.1344 10.1218C27.0762 9.95967 26.9932 9.81037 26.8856 9.67392C27.0307 9.49955 27.1634 9.31711 27.2837 9.12652C27.3762 9.24485 27.4093 9.37753 27.3832 9.52463C27.4828 9.52463 27.5823 9.52463 27.6818 9.52463C27.6401 9.24346 27.7397 9.02788 27.9804 8.87769C28.3498 8.86028 28.7147 8.81051 29.0752 8.7284C28.9757 8.59573 28.8762 8.46296 28.7766 8.33029C28.9769 8.13571 29.2092 7.98642 29.4733 7.88241C29.407 7.84927 29.3407 7.81603 29.2743 7.78288C29.8715 7.7165 30.4686 7.7165 31.0658 7.78288C31.24 7.91416 31.439 7.96392 31.663 7.93217Z" fill="#1069D0"/>
<path fill-rule="evenodd" clip-rule="evenodd" d="M20.1195 7.63354C20.8838 7.6431 21.6468 7.67634 22.4086 7.73307C24.146 8.45376 24.8758 9.74763 24.5983 11.6147C24.3418 11.4711 24.1096 11.3051 23.9016 11.117C23.7947 10.9792 23.662 10.8631 23.5034 10.7687C22.6747 10.7189 21.8453 10.7024 21.0152 10.7189C21.0152 10.8185 21.0152 10.918 21.0152 11.0175C20.821 11.0447 20.6718 10.9784 20.5674 10.8185C20.518 10.9712 20.5345 11.1205 20.6171 11.2663C20.5913 11.3918 20.525 11.4914 20.4181 11.5649C19.9215 11.6146 19.4239 11.6312 18.9251 11.6147C18.9251 11.3161 18.9251 11.0175 18.9251 10.7189C18.6597 10.7189 18.3943 10.7189 18.1289 10.7189C18.1289 10.4867 18.1289 10.2544 18.1289 10.0222C18.1289 9.79003 18.1289 9.55773 18.1289 9.32553C18.3642 8.67521 18.7955 8.19409 19.4228 7.88237C19.6368 7.74193 19.8691 7.65892 20.1195 7.63354Z" fill="#136BD3"/>
<path fill-rule="evenodd" clip-rule="evenodd" d="M34.8477 9.22601C35.0917 9.28225 35.3239 9.34863 35.5444 9.42507C35.2569 9.47583 35.0247 9.40954 34.8477 9.22601Z" fill="#6E8194"/>
<path fill-rule="evenodd" clip-rule="evenodd" d="M31.6628 7.93215C31.4388 7.9639 31.2398 7.91414 31.0656 7.78286C30.4684 7.71647 29.8713 7.71647 29.2741 7.78286C29.3405 7.816 29.4068 7.84924 29.4731 7.88239C29.209 7.98639 28.9767 8.13569 28.7764 8.33026C28.876 8.46294 28.9755 8.59571 29.075 8.72838C28.7145 8.81049 28.3496 8.86025 27.9802 8.87767C27.7395 9.02786 27.6399 9.24344 27.6816 9.52461C27.5821 9.52461 27.4826 9.52461 27.3831 9.52461C27.4091 9.3775 27.376 9.24483 27.2835 9.12649C27.1632 9.31709 27.0305 9.49952 26.8854 9.6739C26.993 9.81035 27.076 9.95964 27.1342 10.1218C27.5855 9.67659 27.768 9.74287 27.6816 10.3208C27.8412 10.3021 27.974 10.3519 28.0797 10.4701C27.9405 10.5293 27.8078 10.5127 27.6816 10.4204C27.5935 10.5025 27.5603 10.602 27.5821 10.7189C28.2796 10.7024 28.9763 10.7189 29.6722 10.7687C29.8847 10.8559 30.0175 11.0052 30.0703 11.2166C29.9328 11.0871 29.767 11.0042 29.5727 10.9678C28.8428 10.9014 28.1129 10.9014 27.3831 10.9678C27.042 11.1465 26.7268 11.3622 26.4375 11.6147C26.322 9.17456 27.4831 7.78117 29.921 7.43451C30.5607 7.4375 31.1412 7.60341 31.6628 7.93215Z" fill="#1E6CC9"/>
<path fill-rule="evenodd" clip-rule="evenodd" d="M18.1255 9.32556C18.1255 9.55776 18.1255 9.79006 18.1255 10.0223C17.9627 10.3915 17.8964 10.7896 17.9264 11.2166C17.8122 10.7706 17.7956 10.3061 17.8767 9.8232C17.9139 9.62504 17.9968 9.45913 18.1255 9.32556Z" fill="#397DC6"/>
<path fill-rule="evenodd" clip-rule="evenodd" d="M36.9373 12.0128C36.5971 11.8398 36.2487 11.6739 35.8923 11.5152C35.7201 11.6295 35.5543 11.6295 35.3947 11.5152C35.3615 11.5815 35.3283 11.6478 35.2951 11.7142C35.1843 11.3361 35.0516 11.3361 34.897 11.7142C34.9559 12.1519 34.7735 12.351 34.3496 12.3114C34.6801 11.9496 34.8129 11.5182 34.7477 11.0175C35.5809 11.1358 36.3108 11.4675 36.9373 12.0128Z" fill="#2C71C7"/>
<path fill-rule="evenodd" clip-rule="evenodd" d="M18.127 10.0222C18.127 10.2544 18.127 10.4867 18.127 10.7189C18.3925 10.7189 18.6578 10.7189 18.9233 10.7189C18.9233 11.0175 18.9233 11.3161 18.9233 11.6147C19.422 11.6312 19.9196 11.6146 20.4162 11.5649C20.5231 11.4914 20.5895 11.3918 20.6152 11.2663C20.5326 11.1205 20.5161 10.9712 20.5655 10.8184C20.6699 10.9784 20.8192 11.0447 21.0134 11.0175C21.0134 10.918 21.0134 10.8184 21.0134 10.7189C21.8434 10.7024 22.6728 10.7189 23.5016 10.7687C23.6601 10.8631 23.7928 10.9792 23.8997 11.117C23.0173 10.917 22.1215 10.8672 21.2124 10.9677C20.5532 11.5125 20.5532 12.0432 21.2124 12.5602C21.8096 12.5933 22.4068 12.6266 23.0039 12.6597C23.2714 12.7641 23.5036 12.9134 23.7006 13.1076C22.8147 12.8595 21.919 12.8429 21.0134 13.0578C20.9021 13.1647 20.8026 13.2808 20.7148 13.4062C20.4737 13.2664 20.4073 13.084 20.5157 12.8588C20.4241 12.576 20.3246 12.2941 20.2171 12.0128C20.0568 12.0944 19.9904 12.2272 20.0181 12.4109C19.3055 12.2437 19.0732 12.4925 19.3214 13.1574C19.5513 13.2068 19.7835 13.2233 20.0181 13.2071C20.115 13.5418 20.1315 13.8737 20.0678 14.2024C20.378 14.1989 20.6931 14.1658 21.0134 14.1029C21.3432 14.1935 21.3764 14.3261 21.1129 14.501C20.9538 14.403 20.7879 14.3864 20.6152 14.4512C20.7402 14.4927 20.8066 14.5756 20.8143 14.7001C20.5601 14.59 20.2947 14.5071 20.0181 14.4512C18.9564 14.3848 17.8948 14.3848 16.8332 14.4512C16.3784 14.7041 16.2291 15.0857 16.3853 15.5958C16.5575 15.7851 16.7399 15.951 16.9327 16.0934C16.7113 16.4044 16.4128 16.6201 16.0369 16.7404C15.5393 16.8068 15.0417 16.8068 14.544 16.7404C14.1599 16.4386 13.795 16.1235 13.4492 15.7949C13.4492 15.7285 13.4161 15.6953 13.3497 15.6953C12.6552 13.5149 13.3851 12.0054 15.5393 11.1668C15.7998 11.085 16.0652 11.0352 16.3355 11.0175C16.2238 12.0171 16.6552 12.4649 17.6294 12.3611C18.0373 12.0647 18.1368 11.6831 17.928 11.2166C17.8979 10.7896 17.9642 10.3915 18.127 10.0222Z" fill="#176BCE"/>
<path fill-rule="evenodd" clip-rule="evenodd" d="M23.7 13.1076C24.1488 13.4743 24.4474 13.9388 24.5957 14.501C24.5957 15.8613 24.5957 17.2214 24.5957 18.5817C24.3272 18.5177 24.0618 18.4348 23.7995 18.3329C23.3965 17.9993 22.9653 17.7173 22.5056 17.4869C22.4507 16.2489 21.8867 15.3199 20.8136 14.7001C20.806 14.5757 20.7396 14.4928 20.6146 14.4513C20.7873 14.3865 20.9532 14.403 21.1122 14.501C21.3758 14.3262 21.3425 14.1935 21.0127 14.1029C20.6924 14.1658 20.3773 14.199 20.0672 14.2024C20.1309 13.8737 20.1144 13.5419 20.0174 13.2072C19.7828 13.2234 19.5506 13.2069 19.3207 13.1574C19.0726 12.4925 19.3049 12.2437 20.0174 12.4109C19.9898 12.2272 20.0561 12.0944 20.2165 12.0128C20.324 12.2941 20.4235 12.576 20.5151 12.8588C20.4067 13.084 20.4731 13.2665 20.7141 13.4062C20.8019 13.2808 20.9014 13.1648 21.0127 13.0579C21.9183 12.8429 22.8141 12.8595 23.7 13.1076Z" fill="#1266CD"/>
<path fill-rule="evenodd" clip-rule="evenodd" d="M36.9395 12.0128C37.9736 12.9165 38.2721 14.0113 37.8352 15.2973C37.8823 14.5132 37.816 13.7502 37.6362 13.0081C37.4702 13.0081 37.3044 13.0081 37.1385 13.0081C37.1574 12.6566 37.091 12.3248 36.9395 12.0128Z" fill="#2B6ABD"/>
<path fill-rule="evenodd" clip-rule="evenodd" d="M9.0692 15.1977C7.20195 17.1451 6.87022 19.3347 8.07391 21.7666C7.83624 22.3376 7.72019 22.9348 7.72556 23.5581C7.11924 23.9817 6.63812 24.5125 6.2824 25.1506C6.16347 25.1328 6.04732 25.0997 5.93405 25.051C5.7122 25.2615 5.51315 25.4937 5.33688 25.7477C5.15365 25.5826 5.0375 25.3836 4.98853 25.1506C4.55728 25.1506 4.12592 25.1506 3.69466 25.1506C3.69466 23.5581 3.69466 21.9656 3.69466 20.3732C3.42922 20.3732 3.16388 20.3732 2.89844 20.3732C2.89844 19.577 2.89844 18.7807 2.89844 17.9845C3.42922 17.9845 3.96011 17.9845 4.49089 17.9845C4.49089 17.7191 4.49089 17.4537 4.49089 17.1883C4.75633 17.1883 5.02168 17.1883 5.28712 17.1883C5.28712 16.9228 5.28712 16.6575 5.28712 16.3921C5.55256 16.3921 5.8179 16.3921 6.08335 16.3921C6.08335 16.1266 6.08335 15.8613 6.08335 15.5958C6.48146 15.5958 6.87957 15.5958 7.27769 15.5958C7.27769 15.3304 7.27769 15.065 7.27769 14.7996C7.54313 14.7996 7.80847 14.7996 8.07391 14.7996C8.07391 14.6669 8.07391 14.5342 8.07391 14.4015C8.20658 14.4015 8.33936 14.4015 8.47203 14.4015C8.43888 14.6005 8.40564 14.7996 8.3725 14.9987C8.53204 15.0174 8.66481 14.9676 8.77061 14.8494C8.65008 14.7605 8.65008 14.6776 8.77061 14.6005C8.87014 14.7001 8.96967 14.7996 9.0692 14.8991C8.93872 14.9746 8.88895 15.0741 8.9199 15.1977C8.98858 15.0745 9.03834 15.0745 9.0692 15.1977Z" fill="#004371"/>
<path fill-rule="evenodd" clip-rule="evenodd" d="M20.8151 14.7001C21.8881 15.32 22.4521 16.249 22.507 17.4869C22.5394 17.9944 22.4896 18.492 22.3578 18.9798C21.813 19.5412 21.3154 19.5079 20.8648 18.8803C20.8317 18.2831 20.7984 17.686 20.7653 17.0888C20.5296 16.5976 20.1481 16.2824 19.6207 16.1433C18.7256 16.0935 17.8298 16.077 16.9335 16.0935C16.7407 15.9511 16.5582 15.7852 16.386 15.5959C16.2299 15.0858 16.3792 14.7042 16.8339 14.4513C17.8956 14.3849 18.9572 14.3849 20.0188 14.4513C20.2954 14.5071 20.5609 14.59 20.8151 14.7001Z" fill="#F6F9FD"/>
<path fill-rule="evenodd" clip-rule="evenodd" d="M34.1492 14.4015C33.1202 14.385 32.0918 14.4015 31.0639 14.4512C30.6312 14.5713 30.2331 14.7538 29.8695 14.9987C29.8482 14.835 29.8815 14.6857 29.969 14.5508C31.3692 14.2946 32.7626 14.2448 34.1492 14.4015Z" fill="#3B7DCF"/>
<path fill-rule="evenodd" clip-rule="evenodd" d="M34.151 14.4015C34.3735 14.474 34.5559 14.6066 34.6984 14.7996C34.9207 15.4048 34.7381 15.8361 34.151 16.0935C33.2215 16.077 32.2925 16.0935 31.3642 16.1433C30.9215 16.3537 30.5732 16.6689 30.3192 17.0888C30.286 17.6528 30.2528 18.2167 30.2196 18.7808C29.8068 19.4895 29.3092 19.5559 28.7267 18.9798C28.6263 18.828 28.5765 18.6621 28.5774 18.4822C28.3171 17.0485 28.7483 15.8873 29.8713 14.9987C30.2349 14.7538 30.633 14.5713 31.0656 14.4513C32.0936 14.4015 33.122 14.385 34.151 14.4015Z" fill="#F7FBFE"/>
<path fill-rule="evenodd" clip-rule="evenodd" d="M37.733 15.6954C39.1819 15.6197 40.3927 16.1174 41.3658 17.1883C41.6221 17.5094 41.7714 17.8743 41.8137 18.2831C41.8301 18.5835 41.8135 18.8821 41.7639 19.1788C41.6197 18.8687 41.404 18.6199 41.117 18.4324C38.6212 17.0147 36.9624 17.6783 36.1406 20.4229C36.1997 20.4691 36.2661 20.4858 36.3396 20.4727C35.7653 20.6444 35.2841 20.4785 34.8965 19.9751C34.7191 19.5044 34.5034 19.0565 34.2495 18.6314C33.4436 18.1464 32.9459 18.3621 32.7566 19.2784C32.8541 19.9034 33.0863 20.4674 33.4533 20.9704C33.3821 22.4137 32.8844 23.6744 31.9604 24.7524C31.5584 25.0144 31.1271 25.2301 30.6665 25.3994C30.1367 25.449 29.6059 25.4657 29.0741 25.4491C30.2394 25.1967 31.019 24.5 31.413 23.359C31.6607 22.3634 31.2791 21.899 30.2684 21.9656C29.8282 21.0332 29.0984 20.718 28.0788 21.0201C27.6143 21.4019 27.0835 21.5844 26.4863 21.5675C26.4863 20.6054 26.4863 19.6433 26.4863 18.6812C27.1538 18.372 27.7676 17.9739 28.3276 17.4869C28.4355 17.8187 28.5185 18.1505 28.5764 18.4821C28.5755 18.6621 28.6253 18.828 28.7257 18.9798C29.3082 19.5559 29.8058 19.4895 30.2186 18.7807C30.2518 18.2167 30.285 17.6528 30.3182 17.0887C30.5722 16.6688 30.9205 16.3536 31.3632 16.1432C32.2915 16.0935 33.2205 16.0769 34.15 16.0935C34.298 16.3905 34.5302 16.6061 34.8467 16.7404C35.539 16.9524 36.2026 16.8861 36.8373 16.5413C37.1228 16.239 37.4214 15.957 37.733 15.6954Z" fill="#073F9C"/>
<path fill-rule="evenodd" clip-rule="evenodd" d="M26.5878 14.1029C26.4947 15.6262 26.4615 17.1523 26.4883 18.6812C26.4883 19.6434 26.4883 20.6054 26.4883 21.5675C26.4559 22.4483 26.489 23.3109 26.5878 24.1553C26.5819 24.2093 26.5487 24.2425 26.4883 24.2548C26.3722 20.9709 26.3556 17.6864 26.4386 14.4015C26.4616 14.2784 26.5114 14.1788 26.5878 14.1029Z" fill="#356AAB"/>
<path fill-rule="evenodd" clip-rule="evenodd" d="M13.3493 15.6953C13.4157 15.6953 13.4488 15.7285 13.4488 15.7949C13.0573 15.8805 12.6592 15.9136 12.2545 15.8944C12.2545 15.9939 12.2545 16.0935 12.2545 16.193C12.4395 16.1891 12.5722 16.272 12.6526 16.4418C12.5916 16.6555 12.5253 16.8712 12.4536 17.0887C12.1964 17.1776 11.9309 17.2108 11.6573 17.1883C11.6573 17.0556 11.6573 16.9228 11.6573 16.7902C11.3355 16.8972 11.0036 16.9636 10.662 16.9892C10.6746 17.1584 10.741 17.3077 10.8611 17.4371C10.8467 17.5139 10.8135 17.5803 10.7616 17.6361C11.6302 17.6221 12.4595 17.705 13.2498 17.885C12.5559 17.7846 11.8592 17.768 11.1597 17.8352C10.6268 18.1701 10.096 18.5018 9.56724 18.8305C9.39346 19.0951 9.26069 19.3771 9.16912 19.6765C8.99196 17.7311 9.85458 16.4538 11.7569 15.8446C12.2798 15.7181 12.8106 15.6684 13.3493 15.6953Z" fill="#10449A"/>
<path fill-rule="evenodd" clip-rule="evenodd" d="M13.4489 15.7949C13.7947 16.1236 14.1596 16.4387 14.5437 16.7404C15.0414 16.8068 15.539 16.8068 16.0366 16.7404C16.4125 16.6201 16.711 16.4044 16.9324 16.0935C17.8287 16.077 18.7245 16.0935 19.6197 16.1433C20.1471 16.2824 20.5286 16.5976 20.7642 17.0888C20.7974 17.686 20.8306 18.2831 20.8638 18.8803C21.3143 19.5079 21.812 19.5412 22.3567 18.9798C22.4886 18.492 22.5383 17.9944 22.506 17.4869C22.9656 17.7173 23.3969 17.9993 23.7999 18.3329C24.0621 18.4348 24.3276 18.5177 24.5961 18.5817C24.5961 19.577 24.5961 20.5723 24.5961 21.5676C24.2957 21.584 23.9971 21.5674 23.7003 21.5178C23.0922 21.01 22.3955 20.8441 21.6102 21.0202C21.2374 21.2558 20.972 21.571 20.814 21.9657C20.1734 21.8775 19.7753 22.1428 19.6197 22.7619C19.5544 22.8736 19.5212 23.0063 19.5201 23.16C19.677 23.5783 19.7268 24.0096 19.6694 24.4539C19.6277 24.5705 19.5614 24.6701 19.4704 24.7525C19.3892 24.6208 19.273 24.5545 19.122 24.5534C18.8934 24.3749 18.6778 24.1758 18.4751 23.9562C18.3128 23.5332 18.1303 23.135 17.9277 22.7619C17.8391 22.1761 17.7064 21.6121 17.5296 21.0699C18.1284 20.419 18.3441 19.6559 18.1765 18.7808C17.4549 18.169 16.8909 18.3016 16.4845 19.1789C16.2596 20.2767 15.6127 20.7079 14.5437 20.4728C14.6432 20.4728 14.7428 20.4728 14.8423 20.4728C14.8044 19.382 14.3067 18.6024 13.3494 18.1338C13.2745 18.0671 13.2413 17.9841 13.2498 17.885C12.4596 17.7051 11.6302 17.6222 10.7616 17.6362C10.8136 17.5804 10.8467 17.514 10.8612 17.4371C10.741 17.3078 10.6746 17.1585 10.6621 16.9893C11.0037 16.9637 11.3355 16.8973 11.6574 16.7902C11.6574 16.9229 11.6574 17.0556 11.6574 17.1883C11.931 17.2108 12.1964 17.1777 12.4536 17.0888C12.5254 16.8712 12.5917 16.6555 12.6527 16.4419C12.5723 16.2721 12.4396 16.1892 12.2546 16.193C12.2546 16.0935 12.2546 15.994 12.2546 15.8945C12.6592 15.9137 13.0574 15.8805 13.4489 15.7949Z" fill="#063F9B"/>
<path fill-rule="evenodd" clip-rule="evenodd" d="M41.8157 18.2831C41.9647 18.4613 42.0311 18.6768 42.0148 18.93C42.009 19.3421 41.9095 19.7236 41.7162 20.0746C40.4617 19.1067 39.1015 18.9242 37.6355 19.5272C37.2689 19.9415 36.8376 20.2568 36.3416 20.4727C36.2681 20.4858 36.2017 20.4691 36.1426 20.423C36.9644 17.6783 38.6232 17.0147 41.119 18.4324C41.406 18.6199 41.6217 18.8687 41.7659 19.1789C41.8155 18.8821 41.8321 18.5835 41.8157 18.2831Z" fill="#062770"/>
<path fill-rule="evenodd" clip-rule="evenodd" d="M50.772 21.9656C51.6401 28.944 50.031 35.2805 45.9449 40.9756C45.5436 41.4594 45.1289 41.9239 44.7008 42.369C44.6013 42.369 44.5017 42.369 44.4022 42.369C44.3944 42.2266 44.4275 42.0939 44.5017 41.9708C44.2499 41.6951 44.1504 41.3634 44.2032 40.9756C44.5017 40.9756 44.8003 40.9756 45.0989 40.9756C45.0989 40.7765 45.0989 40.5774 45.0989 40.3784C44.933 40.3784 44.7672 40.3784 44.6013 40.3784C44.6013 40.0467 44.6013 39.7148 44.6013 39.3831C44.7672 39.3831 44.933 39.3831 45.0989 39.3831C45.0989 38.62 45.0989 37.857 45.0989 37.0939C45.3644 37.0939 45.6297 37.0939 45.8951 37.0939C45.8951 36.0323 45.8951 34.9707 45.8951 33.909C46.1606 33.909 46.4259 33.909 46.6914 33.909C46.6914 32.8474 46.6914 31.7858 46.6914 30.7241C46.1595 30.7407 45.6287 30.724 45.0989 30.6744C44.8915 30.605 44.7256 30.4888 44.6013 30.326C44.9645 29.6349 45.2299 28.905 45.3975 28.1364C45.4573 27.4983 45.4905 26.8514 45.497 26.1956C45.4117 26.127 45.3454 26.0441 45.298 25.9468C45.4863 25.6936 45.6687 25.6936 45.8454 25.9468C45.8951 24.6202 45.9118 23.293 45.8951 21.9656C45.6297 21.9656 45.3644 21.9656 45.0989 21.9656C45.0989 21.7002 45.0989 21.4348 45.0989 21.1694C44.9662 21.1694 44.8335 21.1694 44.7008 21.1694C44.7008 20.2405 44.7008 19.3115 44.7008 18.3826C44.6013 18.3826 44.5017 18.3826 44.4022 18.3826C44.4022 18.2499 44.4022 18.1172 44.4022 17.9845C44.6344 17.9845 44.8667 17.9845 45.0989 17.9845C45.0989 18.5153 45.0989 19.0462 45.0989 19.577C45.3644 19.577 45.6297 19.577 45.8951 19.577C45.8951 19.8424 45.8951 20.1077 45.8951 20.3732C46.1606 20.3732 46.4259 20.3732 46.6914 20.3732C46.6914 20.1077 46.6914 19.8424 46.6914 19.577C46.9568 19.577 47.2222 19.577 47.4876 19.577C47.4876 19.8424 47.4876 20.1077 47.4876 20.3732C47.753 20.3732 48.0184 20.3732 48.2838 20.3732C48.2838 20.6386 48.2838 20.904 48.2838 21.1694C48.5493 21.1694 48.8146 21.1694 49.08 21.1694C49.08 21.4348 49.08 21.7002 49.08 21.9656C49.665 21.9773 50.229 21.9773 50.772 21.9656Z" fill="#004371"/>
<path fill-rule="evenodd" clip-rule="evenodd" d="M13.2508 17.885C13.2423 17.9842 13.2755 18.0671 13.3504 18.1338C14.3077 18.6024 14.8054 19.382 14.8433 20.4728C14.7438 20.4728 14.6442 20.4728 14.5447 20.4728C14.1674 20.2122 13.8025 19.9302 13.4499 19.6268C11.9909 18.9153 10.6307 19.0646 9.36922 20.0746C9.20888 19.993 9.1425 19.8603 9.17017 19.6765C9.26173 19.3772 9.3945 19.0952 9.56828 18.8305C10.0971 18.5019 10.6279 18.1702 11.1607 17.8353C11.8602 17.7681 12.5569 17.7847 13.2508 17.885Z" fill="#062967"/>
<path fill-rule="evenodd" clip-rule="evenodd" d="M24.5976 14.501C24.7299 17.7692 24.7299 21.0536 24.5976 24.3543C24.5372 24.342 24.504 24.3089 24.498 24.2548C24.5969 23.3772 24.6301 22.4814 24.5976 21.5676C24.5976 20.5723 24.5976 19.577 24.5976 18.5817C24.5976 17.2214 24.5976 15.8613 24.5976 14.501Z" fill="#385E91"/>
<path fill-rule="evenodd" clip-rule="evenodd" d="M30.2668 21.9657C29.9003 22.2331 29.6846 22.5981 29.6198 23.0605C29.4705 23.2762 29.2881 23.4586 29.0724 23.6079C28.4501 23.7277 27.8198 23.7941 27.1814 23.807C26.9935 23.9457 26.7944 24.0617 26.5842 24.1553C26.4854 23.3109 26.4522 22.4483 26.4847 21.5676C27.0819 21.5845 27.6126 21.402 28.0771 21.0202C29.0967 20.718 29.8266 21.0332 30.2668 21.9657Z" fill="#05296D"/>
<path fill-rule="evenodd" clip-rule="evenodd" d="M24.5946 21.5675C24.6271 22.4814 24.5939 23.3772 24.4951 24.2548C24.2485 24.0815 23.9831 23.9322 23.6988 23.8069C23.2012 23.7738 22.7035 23.7405 22.2059 23.7074C21.6042 23.4187 21.2559 22.9375 21.1608 22.2642C21.0469 22.1512 20.9307 22.0516 20.8125 21.9657C20.9705 21.5709 21.2359 21.2558 21.6087 21.0201C22.394 20.8441 23.0907 21.01 23.6988 21.5178C23.9956 21.5673 24.2942 21.584 24.5946 21.5675Z" fill="#03286C"/>
<path fill-rule="evenodd" clip-rule="evenodd" d="M12.253 20.9704C12.777 21.2625 13.2415 21.6274 13.6464 22.0652C13.4323 22.7618 12.9678 23.077 12.253 23.0107C12.0179 22.725 11.9184 22.3933 11.9544 22.0154C11.9711 21.833 11.9876 21.6505 12.0042 21.468C12.1131 21.311 12.1961 21.1451 12.253 20.9704Z" fill="#1067C5"/>
<path fill-rule="evenodd" clip-rule="evenodd" d="M17.5282 21.0699C17.705 21.612 17.8377 22.176 17.9263 22.7619C17.9663 23.2566 18.1322 23.7045 18.4239 24.1055C18.3415 24.1966 18.242 24.2629 18.1253 24.3046C19.1502 24.6419 19.1502 24.9238 18.1253 25.1505C18.1253 25.0179 18.1253 24.8851 18.1253 24.7524C17.7871 24.7881 17.4719 24.7218 17.1798 24.5534C17.0773 24.5868 17.0275 24.6532 17.0305 24.7524C16.8506 24.6124 16.6515 24.4962 16.4334 24.4041C15.6005 24.3304 14.771 24.347 13.9452 24.4538C13.9562 24.3924 13.9893 24.3427 14.0447 24.3046C14.4428 24.2714 14.8409 24.2382 15.239 24.205C15.1063 24.1719 14.9736 24.1386 14.8409 24.1055C14.9701 23.6956 14.9701 23.2809 14.8409 22.8614C14.3232 22.7473 14.3397 22.6478 14.8907 22.5628C15.0312 22.7044 15.1474 22.6878 15.239 22.513C14.8058 22.4887 14.3744 22.4887 13.9452 22.513C13.8375 22.3807 13.7711 22.2314 13.7461 22.0652C15.2367 22.6048 16.4975 22.2731 17.5282 21.0699Z" fill="#012A73"/>
<path fill-rule="evenodd" clip-rule="evenodd" d="M33.4539 20.9704C34.3924 22.2421 35.6199 22.6402 37.1364 22.1647C37.4708 22.348 37.7694 22.5968 38.0322 22.9112C38.3308 22.9776 38.6293 22.9776 38.9279 22.9112C39.3018 22.3758 39.3184 21.8284 38.9777 21.269C38.7629 21.2142 38.7131 21.1147 38.8284 20.9704C40.8302 21.0318 41.7094 22.0603 41.4659 24.0558C41.3762 24.3117 41.2436 24.5439 41.0678 24.7525C40.9794 25.1408 41.0292 25.5058 41.2171 25.8473C41.1179 25.8558 41.035 25.8226 40.9683 25.7478C40.8607 25.9734 40.7114 25.99 40.5204 25.7975C40.7934 25.4765 40.9261 25.0951 40.9185 24.6529C40.8138 24.6381 40.7143 24.6546 40.6199 24.7027C40.4291 25.1164 40.1638 25.1994 39.8237 24.9515C39.6478 25.204 39.4985 25.4694 39.3758 25.7478C38.9949 25.4472 38.8788 25.5136 39.0275 25.9468C37.8821 24.4976 36.3892 23.9833 34.5487 24.4041C33.8861 24.8284 33.7866 25.3593 34.2501 25.9966C35.087 26.1067 35.9164 26.1897 36.7383 26.2454C35.9752 26.2454 35.2122 26.2454 34.4491 26.2454C34.1913 26.1704 34.0088 26.0044 33.9017 25.7478C33.8568 25.4117 33.7905 25.0798 33.7027 24.7525C33.6539 24.8812 33.6373 25.0139 33.6529 25.1506C33.1891 25.217 32.7247 25.2335 32.2595 25.2004C32.0962 25.088 31.9967 24.9387 31.9609 24.7525C32.885 23.6745 33.3826 22.4138 33.4539 20.9704Z" fill="#032E7A"/>
<path fill-rule="evenodd" clip-rule="evenodd" d="M38.8307 20.9704C38.7154 21.1147 38.7652 21.2142 38.9799 21.269C39.3206 21.8284 39.304 22.3758 38.9302 22.9112C38.6316 22.9776 38.333 22.9776 38.0344 22.9112C37.7717 22.5968 37.4731 22.348 37.1387 22.1647C37.7 21.7703 38.264 21.3722 38.8307 20.9704Z" fill="#1066CA"/>
<path fill-rule="evenodd" clip-rule="evenodd" d="M12.2557 20.9704C12.1988 21.145 12.1158 21.3109 12.0069 21.468C11.9903 21.6504 11.9738 21.833 11.9571 22.0154C11.9211 22.3932 12.0206 22.7249 12.2557 23.0107C12.9705 23.077 13.435 22.7618 13.6491 22.0652C13.6823 22.0652 13.7155 22.0652 13.7487 22.0652C13.7736 22.2314 13.84 22.3807 13.9477 22.513C14.377 22.4887 14.8083 22.4887 15.2416 22.513C15.1499 22.6878 15.0338 22.7044 14.8932 22.5628C14.3422 22.6478 14.3257 22.7473 14.8435 22.8614C14.9727 23.2809 14.9727 23.6956 14.8435 24.1055C14.9761 24.1386 15.1089 24.1719 15.2416 24.205C14.8435 24.2382 14.4454 24.2714 14.0472 24.3046C13.9919 24.3427 13.9588 24.3924 13.9477 24.4538C13.0021 24.8681 12.2722 25.5316 11.7581 26.4444C11.5842 26.6363 11.4184 26.8519 11.2604 27.0914C10.9629 27.1757 10.8301 27.0595 10.8623 26.743C10.5905 26.6905 10.3251 26.6076 10.0661 26.4942C9.98101 26.2517 9.91472 26.0029 9.86705 25.7477C10.0015 25.5563 10.0679 25.3406 10.0661 25.1008C9.84714 24.6778 9.66461 24.2299 9.5187 23.7571C9.43708 21.8647 10.3495 20.9357 12.2557 20.9704Z" fill="#04307E"/>
<path fill-rule="evenodd" clip-rule="evenodd" d="M17.0321 24.7525C17.2248 25.2391 17.1252 25.6538 16.7335 25.9966C15.9117 26.12 15.0822 26.1864 14.2453 26.1956C13.9229 26.3684 13.6906 26.6172 13.5486 26.9421C13.3278 27.2022 13.1619 27.5007 13.051 27.8378C12.628 28.1849 12.1801 28.2181 11.7073 27.9374C11.5119 27.4313 11.5286 26.9336 11.7571 26.4444C12.2712 25.5317 13.0011 24.8681 13.9467 24.4539C14.7726 24.347 15.6021 24.3305 16.4349 24.4041C16.6531 24.4963 16.8521 24.6124 17.0321 24.7525Z" fill="#F7FAFD"/>
<path fill-rule="evenodd" clip-rule="evenodd" d="M39.0264 25.9468C39.1744 26.2427 39.3237 26.5413 39.4743 26.8426C39.7124 27.8319 39.3309 28.2466 38.3297 28.0867C37.9785 27.6346 37.6633 27.1535 37.3842 26.6435C37.2212 26.4212 37.0055 26.2885 36.7373 26.2454C35.9154 26.1897 35.086 26.1066 34.2491 25.9966C33.7856 25.3593 33.8851 24.8284 34.5477 24.4041C36.3881 23.9833 37.8811 24.4976 39.0264 25.9468Z" fill="#F7FAFD"/>
<path fill-rule="evenodd" clip-rule="evenodd" d="M19.6187 22.7619C19.6869 23.5122 19.9855 24.1592 20.5145 24.7027C20.8358 24.9456 21.1675 25.1611 21.5098 25.3496C21.4467 25.4937 21.3305 25.5599 21.1614 25.5487C20.3575 25.4551 19.6775 25.1234 19.1211 24.5534C19.2721 24.5545 19.3882 24.6208 19.4694 24.7525C19.5605 24.6701 19.6268 24.5705 19.6685 24.4539C19.7258 24.0096 19.6761 23.5783 19.5192 23.16C19.5203 23.0062 19.5534 22.8736 19.6187 22.7619Z" fill="#1553AC"/>
<path fill-rule="evenodd" clip-rule="evenodd" d="M31.9603 24.7524C31.9961 24.9387 32.0956 25.088 32.2589 25.2003C32.7241 25.2335 33.1885 25.2169 33.6523 25.1506C33.6367 25.0139 33.6533 24.8811 33.7021 24.7524C33.7899 25.0798 33.8561 25.4116 33.9011 25.7477C34.0082 26.0044 34.1907 26.1703 34.4485 26.2454C34.3459 26.3199 34.2298 26.3862 34.1002 26.4444C34.0671 26.378 34.0338 26.3118 34.0007 26.2454C33.8236 26.4073 33.6079 26.54 33.3537 26.6435C32.9888 26.7099 32.6239 26.7762 32.2589 26.8425C32.5575 26.9089 32.8561 26.9752 33.1547 27.0416C33.1215 27.108 33.0883 27.1743 33.0551 27.2407C33.1912 27.374 33.3239 27.5067 33.4533 27.6388C32.8249 27.4235 32.178 27.2908 31.5125 27.2407C30.0317 27.3906 28.6548 27.8385 27.382 28.5843C27.0301 28.9029 26.7149 29.2512 26.4365 29.6293C26.3701 28.7336 26.3701 27.8378 26.4365 26.9421C26.618 26.1634 27.0992 25.6822 27.8797 25.4989C28.2764 25.4492 28.6745 25.4326 29.074 25.4491C29.6059 25.4657 30.1367 25.449 30.6665 25.3994C31.1271 25.2301 31.5583 25.0144 31.9603 24.7524Z" fill="#033083"/>
<path fill-rule="evenodd" clip-rule="evenodd" d="M17.9261 22.7619C18.1288 23.135 18.3112 23.5331 18.4735 23.9562C18.6763 24.1758 18.8918 24.3749 19.1205 24.5534C19.6768 25.1234 20.3569 25.4551 21.1608 25.5487C21.3299 25.5599 21.446 25.4937 21.5091 25.3496C22.2553 25.3736 22.9852 25.4898 23.6988 25.698C24.212 25.9618 24.5106 26.3766 24.5945 26.9421C24.627 27.7898 24.5938 28.6191 24.495 29.4303C23.968 28.8212 23.3377 28.3402 22.604 27.9871C21.6533 27.708 20.6912 27.4758 19.7176 27.2904C18.6859 27.1696 17.757 27.4184 16.9308 28.0369C16.9242 27.7118 17.09 27.5626 17.4285 27.589C17.3341 27.541 17.2346 27.5244 17.1299 27.5393C17.1653 27.2343 17.0824 26.9689 16.8811 26.743C16.7395 26.7337 16.5903 26.7004 16.4332 26.6435C16.5513 26.5421 16.6509 26.4259 16.7318 26.2952C15.9687 26.2288 15.2057 26.2288 14.4426 26.2952C14.2397 26.648 13.9411 26.8637 13.5469 26.9421C13.6889 26.6172 13.9212 26.3684 14.2436 26.1956C15.0805 26.1864 15.91 26.12 16.7318 25.9966C17.1235 25.6538 17.2231 25.2391 17.0304 24.7525C17.0274 24.6532 17.0771 24.5869 17.1797 24.5534C17.4718 24.7218 17.787 24.7881 18.1252 24.7525C18.1252 24.8851 18.1252 25.0179 18.1252 25.1506C19.15 24.9239 19.15 24.6419 18.1252 24.3046C18.2418 24.2629 18.3414 24.1966 18.4238 24.1055C18.132 23.7045 17.9661 23.2567 17.9261 22.7619Z" fill="#063282"/>
<path fill-rule="evenodd" clip-rule="evenodd" d="M40.3215 31.2218C40.3372 31.3585 40.3206 31.4912 40.2718 31.6199C40.046 31.511 39.8303 31.5442 39.6248 31.7195C39.5324 31.6011 39.4992 31.4685 39.5253 31.3214C39.2755 31.1937 39.0101 31.0941 38.7291 31.0228C38.686 31.4302 38.4538 31.6293 38.0324 31.6199C37.8997 31.6199 37.767 31.6199 37.6343 31.6199C37.7817 31.5283 37.9144 31.4121 38.0324 31.2716C37.9744 30.9812 37.8915 30.6992 37.7836 30.4256C37.7172 30.492 37.6509 30.5583 37.5845 30.6247C37.2984 30.5038 37.1159 30.2881 37.0371 29.9777C37.0774 29.8837 37.1438 29.8173 37.2362 29.7787C37.203 29.7455 37.1698 29.7123 37.1366 29.6791C37.8178 29.6755 38.4814 29.5759 39.1272 29.3805C39.2338 29.2958 39.3333 29.2128 39.4258 29.1317C39.6865 28.889 39.9684 28.6568 40.2718 28.435C40.3753 28.1 40.5743 27.8346 40.869 27.6388C41.0683 27.071 41.2508 26.5071 41.4164 25.9468C42.0008 26.0029 42.4321 25.7707 42.7102 25.2501C43.5604 26.1088 43.8424 27.1372 43.5562 28.3355C43.056 29.9795 41.9446 30.8753 40.222 31.0228C40.2581 31.0907 40.2913 31.1571 40.3215 31.2218Z" fill="#004371"/>
<path fill-rule="evenodd" clip-rule="evenodd" d="M16.9302 28.0369C16.897 28.1364 16.8307 28.2028 16.7311 28.236C16.7077 28.1765 16.658 28.1434 16.5818 28.1364C16.4525 28.2566 16.3032 28.3229 16.134 28.3355C16.1547 28.5763 16.1214 28.8085 16.0344 29.0322C15.2784 29.1723 14.5154 29.2387 13.7453 29.2312C13.2042 29.2505 12.8725 29.2174 12.75 29.1317C12.7747 28.6665 12.8742 28.2353 13.0486 27.8378C13.1596 27.5007 13.3255 27.2022 13.5462 26.9421C13.9405 26.8637 14.239 26.648 14.442 26.2952C15.2051 26.2288 15.9681 26.2288 16.7311 26.2952C16.6502 26.4259 16.5507 26.5421 16.4326 26.6435C16.5896 26.7004 16.7389 26.7337 16.8804 26.743C17.0818 26.9689 17.1647 27.2343 17.1292 27.5393C17.234 27.5244 17.3335 27.5409 17.4278 27.589C17.0893 27.5625 16.9235 27.7118 16.9302 28.0369Z" fill="#033B97"/>
<path fill-rule="evenodd" clip-rule="evenodd" d="M41.2154 25.8472C41.3141 25.8301 41.3804 25.8634 41.4144 25.9468C41.2489 26.507 41.0664 27.0709 40.867 27.6388C40.5724 27.8345 40.3734 28.1 40.2698 28.435C39.9665 28.6567 39.6845 28.8889 39.4239 29.1317C38.7792 29.2768 38.1323 29.4095 37.4831 29.5298C36.6209 29.4436 35.7749 29.3109 34.9451 29.1317C34.6106 28.4654 34.1129 27.9678 33.4522 27.6388C33.3228 27.5067 33.1901 27.374 33.054 27.2406C33.0872 27.1743 33.1204 27.108 33.1536 27.0416C32.855 26.9752 32.5564 26.9089 32.2578 26.8425C32.6228 26.7761 32.9877 26.7099 33.3526 26.6435C33.6068 26.54 33.8225 26.4073 33.9996 26.2454C34.0327 26.3117 34.0659 26.378 34.0991 26.4444C34.2287 26.3862 34.3448 26.3199 34.4474 26.2454C35.2105 26.2454 35.9735 26.2454 36.7366 26.2454C37.0048 26.2885 37.2205 26.4211 37.3835 26.6435C37.6626 27.1535 37.9778 27.6346 38.329 28.0866C39.3302 28.2466 39.7117 27.8318 39.4736 26.8425C39.323 26.5413 39.1737 26.2427 39.0257 25.9468C38.877 25.5135 38.9932 25.4471 39.3741 25.7477C39.4968 25.4693 39.6461 25.204 39.822 24.9515C40.1621 25.1993 40.4274 25.1163 40.6182 24.7027C40.7125 24.6546 40.8121 24.6381 40.9168 24.6529C40.9243 25.095 40.7917 25.4765 40.5187 25.7975C40.7097 25.99 40.859 25.9733 40.9665 25.7477C41.0333 25.8226 41.1162 25.8558 41.2154 25.8472Z" fill="#053892"/>
<path fill-rule="evenodd" clip-rule="evenodd" d="M24.5976 26.9421C24.7127 27.8203 24.7294 28.7161 24.6473 29.6293C24.576 29.5752 24.5262 29.5088 24.498 29.4303C24.5969 28.6191 24.63 27.7898 24.5976 26.9421Z" fill="#3E5789"/>
<path fill-rule="evenodd" clip-rule="evenodd" d="M9.86499 25.7477C9.91267 26.0029 9.97895 26.2518 10.064 26.4942C10.323 26.6077 10.5885 26.6906 10.8603 26.743C10.828 27.0595 10.9608 27.1757 11.2584 27.0914C11.4163 26.8519 11.5822 26.6363 11.756 26.4444C11.5275 26.9336 11.5109 27.4313 11.7063 27.9374C12.179 28.2181 12.6269 28.1849 13.0499 27.8378C12.8755 28.2353 12.776 28.6665 12.7513 29.1317C12.8738 29.2174 13.2056 29.2505 13.7466 29.2312C14.5167 29.2387 15.2797 29.1723 16.0357 29.0322C16.1227 28.8085 16.156 28.5763 16.1353 28.3355C16.3045 28.3229 16.4538 28.2566 16.5832 28.1364C16.6593 28.1434 16.7091 28.1765 16.7324 28.236C16.4833 28.5347 16.2843 28.8665 16.1353 29.2312C14.8107 29.4601 13.4836 29.4767 12.1541 29.281C11.9124 29.1795 11.6801 29.0634 11.4574 28.9326C10.4589 28.1672 9.82846 27.1719 9.56641 25.9468C9.64503 25.8571 9.74456 25.7907 9.86499 25.7477Z" fill="#053A8D"/>
<path fill-rule="evenodd" clip-rule="evenodd" d="M31.9597 29.1317C31.4648 29.1978 30.9671 29.2309 30.4668 29.2312C30.9566 29.0329 31.4542 28.9997 31.9597 29.1317Z" fill="#5271B0"/>
<path fill-rule="evenodd" clip-rule="evenodd" d="M31.961 29.1317C32.6725 29.1469 33.1701 29.4787 33.454 30.127C32.6838 30.0916 31.9207 30.1413 31.1648 30.2763C30.7691 30.5527 30.5369 30.9342 30.4681 31.4209C30.2411 31.3788 30.0752 31.4452 29.9705 31.6199C29.7033 31.8559 29.5706 32.1545 29.5724 32.5157C29.397 32.1935 29.1315 31.9612 28.7761 31.819C28.2852 31.6216 27.7875 31.4557 27.2832 31.3213C28.0242 30.1513 29.0859 29.4546 30.4681 29.2312C30.9684 29.2309 31.4661 29.1978 31.961 29.1317Z" fill="#0C449E"/>
<path fill-rule="evenodd" clip-rule="evenodd" d="M34.9491 29.1317C35.7789 29.311 36.6249 29.4436 37.487 29.5298C38.1363 29.4095 38.7832 29.2768 39.4279 29.1317C39.3354 29.2128 39.2359 29.2957 39.1293 29.3805C38.4834 29.5759 37.8199 29.6754 37.1387 29.6791C37.1718 29.7123 37.2051 29.7455 37.2382 29.7786C37.1459 29.8173 37.0795 29.8837 37.0392 29.9777C37.118 30.2881 37.3004 30.5038 37.5866 30.6246C37.653 30.5583 37.7192 30.492 37.7856 30.4256C37.8935 30.6992 37.9764 30.9812 38.0345 31.2716C37.9164 31.4121 37.7837 31.5283 37.6363 31.6199C37.0915 31.8328 36.8261 32.2309 36.8401 32.8143C35.7514 32.9445 34.6566 32.9445 33.5557 32.8143C32.8737 32.6138 32.2765 32.2655 31.7642 31.7692C31.5606 31.7204 31.3616 31.7371 31.167 31.819C30.8038 31.5373 30.4057 31.4709 29.9727 31.6199C30.0774 31.4452 30.2433 31.3788 30.4703 31.4209C30.5391 30.9342 30.7713 30.5527 31.167 30.2763C31.9229 30.1413 32.686 30.0916 33.4561 30.127C34.4577 30.5711 34.9553 30.2393 34.9491 29.1317Z" fill="#012866"/>
<path fill-rule="evenodd" clip-rule="evenodd" d="M11.6566 29.3307C12.4468 29.4735 13.2431 29.573 14.0453 29.6293C14.5554 29.6164 15.0531 29.5666 15.5382 29.48C15.4718 29.5464 15.4055 29.6127 15.3391 29.6791C15.0219 29.7676 14.7068 29.8505 14.3936 29.9279C14.1032 30.3682 13.9705 30.8659 13.9955 31.4208C13.764 31.4587 13.5816 31.5582 13.4481 31.7194C12.9909 31.6355 12.6259 31.7683 12.3533 32.1175C12.2289 32.1252 12.146 32.1916 12.1045 32.3166C11.9699 32.1082 11.9201 31.876 11.9552 31.6199C11.8556 31.6199 11.7561 31.6199 11.6566 31.6199C11.6403 31.3525 11.6569 31.087 11.7063 30.8237C11.807 30.7404 11.9231 30.7072 12.0547 30.7241C12.0547 30.4587 12.0547 30.1934 12.0547 29.9279C12.83 29.9634 12.8964 29.8307 12.2538 29.5298C12.066 29.6721 11.9001 29.838 11.7561 30.0274C11.2968 29.674 11.3631 29.4915 11.9552 29.48C11.832 29.457 11.7325 29.4072 11.6566 29.3307Z" fill="#004371"/>
<path fill-rule="evenodd" clip-rule="evenodd" d="M24.0008 31.5204C23.4511 31.4888 22.8871 31.5386 22.3088 31.6696C22.1097 31.8023 21.9438 31.9682 21.8111 32.1673C21.7039 32.2141 21.6044 32.1974 21.5125 32.1175C21.4462 31.9849 21.3799 31.8521 21.3135 31.7194C21.2589 31.4622 21.093 31.3627 20.8158 31.4208C20.8465 31.1796 20.8133 30.9474 20.7163 30.7241C20.2289 30.2299 19.6318 30.0308 18.9248 30.127C18.6011 30.129 18.2859 30.1622 17.9793 30.2265C17.9558 30.0654 17.8729 29.9658 17.7305 29.9279C17.8809 29.562 18.1462 29.3132 18.5267 29.1814C20.3631 28.9416 21.9721 29.4226 23.3538 30.6246C23.5937 30.9129 23.8094 31.2115 24.0008 31.5204Z" fill="#0640A1"/>
<path fill-rule="evenodd" clip-rule="evenodd" d="M11.459 28.9326C11.6816 29.0634 11.9139 29.1794 12.1557 29.281C13.4852 29.4766 14.8122 29.46 16.1368 29.2312C16.1095 30.1629 16.5409 30.4946 17.4307 30.2265C17.4374 30.5515 17.2715 30.7008 16.933 30.6744C17.0521 30.7395 17.0521 30.7892 16.933 30.8237C16.8004 30.7241 16.6676 30.6246 16.5349 30.5251C16.5018 30.5748 16.4685 30.6246 16.4354 30.6744C16.5973 31.2757 16.5641 31.8563 16.3359 32.4161C16.8285 32.5427 17.3262 32.5925 17.8288 32.5654C18.3044 32.2523 18.7688 31.9372 19.2222 31.6199C19.5812 31.5214 19.9462 31.4882 20.317 31.5204C20.2839 31.6199 20.2175 31.6863 20.118 31.7194C20.0119 31.6008 19.9289 31.6339 19.8691 31.8189C19.1975 31.8058 18.6336 32.0712 18.1772 32.6152C17.0479 32.9089 15.9033 32.9753 14.7434 32.8142C14.5241 32.744 14.325 32.6444 14.1463 32.5156C14.056 32.1268 13.8238 31.8613 13.4496 31.7194C13.583 31.5582 13.7655 31.4586 13.997 31.4208C13.972 30.8659 14.1046 30.3682 14.3951 29.9279C14.7083 29.8505 15.0234 29.7676 15.3406 29.6791C15.407 29.6127 15.4733 29.5464 15.5396 29.48C15.0545 29.5666 14.5569 29.6164 14.0467 29.6293C13.2445 29.573 12.4483 29.4735 11.658 29.3307C11.5281 29.2345 11.4617 29.1017 11.459 28.9326Z" fill="#022865"/>
<path fill-rule="evenodd" clip-rule="evenodd" d="M17.7293 29.9279C17.8718 29.9658 17.9547 30.0654 17.9782 30.2265C18.2848 30.1622 18.6 30.1291 18.9237 30.127C19.6306 30.0308 20.2278 30.2299 20.7152 30.7241C20.8121 30.9474 20.8454 31.1796 20.8147 31.4208C21.0919 31.3627 21.2578 31.4622 21.3124 31.7194C21.0003 31.5678 20.6686 31.5015 20.3171 31.5204C19.9462 31.4882 19.5813 31.5215 19.2223 31.6199C18.7689 31.9372 18.3045 32.2523 17.8289 32.5654C17.3262 32.5925 16.8286 32.5427 16.3359 32.4161C16.5642 31.8563 16.5974 31.2757 16.4355 30.6744C16.4686 30.6246 16.5019 30.5749 16.535 30.5251C16.6677 30.6246 16.8004 30.7241 16.9331 30.8237C17.0521 30.7892 17.0521 30.7395 16.9331 30.6744C17.2716 30.7009 17.4374 30.5516 17.4307 30.2265C17.5634 30.1601 17.6629 30.0606 17.7293 29.9279Z" fill="#01296D"/>
<path fill-rule="evenodd" clip-rule="evenodd" d="M40.3208 31.2218C41.5438 32.3923 41.859 33.7857 41.2663 35.402C40.6066 36.7412 39.5283 37.4047 38.0316 37.3925C38.28 38.887 37.8488 40.1311 36.7378 41.1248C36.1846 41.4586 35.5874 41.6411 34.9462 41.6722C35.1633 39.8656 34.4003 38.721 32.6571 38.2385C31.7613 38.1721 30.8656 38.1721 29.9698 38.2385C29.3615 38.5663 29.2122 39.0474 29.5219 39.6817C29.6118 39.8012 29.7279 39.8842 29.8703 39.9305C30.8423 39.9356 31.8044 40.002 32.7566 40.1296C33.3613 40.7963 33.411 41.5096 32.9059 42.2694C31.8725 43.2534 30.6616 43.5355 29.2731 43.1154C27.5908 42.3446 26.6619 41.0341 26.4863 39.184C26.4863 37.6247 26.4863 36.0655 26.4863 34.5062C26.8408 34.7982 27.2058 35.0637 27.5811 35.3024C27.8049 35.6424 28.1035 35.8912 28.4769 36.0489C29.1253 36.3017 29.7225 36.6335 30.2684 37.0442C30.431 37.0933 30.5969 37.1099 30.766 37.0939C30.766 37.3594 30.766 37.6247 30.766 37.8902C32.158 37.9951 33.5513 38.0448 34.9462 38.0395C35.1611 37.9487 35.3767 37.8658 35.5932 37.7906C35.6239 37.6646 35.6737 37.5485 35.7425 37.4423C35.6194 37.4192 35.5198 37.3694 35.4439 37.293C36.2413 37.2266 36.5565 36.7953 36.3894 35.9991C36.0649 35.1106 35.4511 34.53 34.5481 34.2574C33.6423 34.2519 32.7466 34.1855 31.8609 34.0583C31.6015 33.8654 31.4191 33.6166 31.3135 33.3119C31.2917 32.8061 31.2419 32.3084 31.1642 31.8189C31.3587 31.737 31.5578 31.7204 31.7613 31.7692C32.2737 32.2654 32.8709 32.6138 33.5528 32.8142C34.6537 32.9445 35.7485 32.9445 36.8373 32.8142C37.0738 33.596 37.5714 33.8448 38.3302 33.5607C39.0596 32.7774 38.9601 32.1305 38.0316 31.6199C38.453 31.6292 38.6852 31.4302 38.7283 31.0227C39.0093 31.0941 39.2747 31.1936 39.5245 31.3213C39.4985 31.4684 39.5316 31.6011 39.6241 31.7194C39.8295 31.5441 40.0452 31.5109 40.271 31.6199C40.3198 31.4912 40.3364 31.3584 40.3208 31.2218Z" fill="#004371"/>
<path fill-rule="evenodd" clip-rule="evenodd" d="M20.3167 31.5204C20.6682 31.5014 20.9999 31.5678 21.312 31.7194C21.3783 31.8521 21.4446 31.9849 21.511 32.1175C21.511 32.6483 21.511 33.1792 21.511 33.71C21.2853 34.8817 20.5886 35.6282 19.4209 35.9494C18.5583 35.9825 17.6958 36.0158 16.8332 36.0489C16.4458 36.4764 16.0477 36.8911 15.6388 37.293C14.8037 37.2733 14.4885 36.842 14.6933 35.9991C14.9664 35.2283 15.4807 34.6809 16.236 34.3569C17.1318 34.3238 18.0275 34.2905 18.9233 34.2574C19.299 34.1139 19.581 33.865 19.7693 33.5109C19.8024 33.0464 19.8357 32.582 19.8688 32.1175C19.9347 31.9698 20.0177 31.8372 20.1176 31.7194C20.2171 31.6863 20.2835 31.6199 20.3167 31.5204Z" fill="#F7F9FC"/>
<path fill-rule="evenodd" clip-rule="evenodd" d="M31.1637 31.819C31.2414 32.3084 31.2912 32.8061 31.313 33.3119C31.4186 33.6166 31.601 33.8655 31.8604 34.0584C32.7461 34.1856 33.6418 34.2519 34.5476 34.2574C35.4507 34.53 36.0645 35.1107 36.3889 35.9992C36.556 36.7953 36.2408 37.2266 35.4434 37.293C34.9946 37.0768 34.696 36.7284 34.5476 36.248C34.415 36.1816 34.2822 36.1153 34.1495 36.0489C33.3202 36.0158 32.4907 35.9825 31.6613 35.9494C31.3816 35.8592 31.1163 35.7431 30.8651 35.601C29.9167 34.798 29.4854 33.7695 29.5712 32.5157C29.5694 32.1545 29.7022 31.8559 29.9693 31.6199C30.4024 31.4709 30.8005 31.5373 31.1637 31.819Z" fill="#F5F8FC"/>
<path fill-rule="evenodd" clip-rule="evenodd" d="M37.6327 31.6199C37.7654 31.6199 37.8981 31.6199 38.0308 31.6199C38.9593 32.1305 39.0588 32.7774 38.3294 33.5607C37.5706 33.8449 37.0729 33.5961 36.8365 32.8143C36.8224 32.2309 37.0879 31.8328 37.6327 31.6199Z" fill="#F3F7FA"/>
<path fill-rule="evenodd" clip-rule="evenodd" d="M23.9982 31.5204C24.3186 32.0706 24.5177 32.6678 24.5953 33.3119C24.6306 33.7236 24.5808 34.1217 24.446 34.5062C23.9374 34.9996 23.39 35.4308 22.8038 35.8001C22.2639 35.7355 21.7496 35.6028 21.2611 35.402C21.0483 35.1386 21.0815 34.9064 21.3607 34.7053C21.4019 34.7507 21.4516 34.784 21.5099 34.8048C21.753 34.6991 21.9521 34.5498 22.1071 34.3569C21.9219 34.0264 21.7395 34.0429 21.5597 34.4067C21.5102 34.1768 21.4937 33.9446 21.5099 33.71C21.5099 33.1792 21.5099 32.6483 21.5099 32.1175C21.6018 32.1974 21.7013 32.2141 21.8085 32.1673C21.9412 31.9682 22.1071 31.8023 22.3062 31.6696C22.8845 31.5386 23.4485 31.4888 23.9982 31.5204Z" fill="#022A6E"/>
<path fill-rule="evenodd" clip-rule="evenodd" d="M27.2845 31.3213C27.7888 31.4557 28.2865 31.6216 28.7775 31.8189C29.1329 31.9612 29.3983 32.1935 29.5737 32.5156C29.4879 33.7695 29.9191 34.798 30.8676 35.601C30.859 35.7001 30.8922 35.783 30.9671 35.8498C31.1661 35.9162 31.3652 35.9825 31.5643 36.0489C31.4813 36.1318 31.3983 36.2148 31.3154 36.2977C31.1314 36.036 30.9158 35.9863 30.6685 36.1484C31.0624 36.358 31.162 36.6732 30.9671 37.0939C29.8002 36.5517 28.6722 35.9545 27.5831 35.3024C27.2078 35.0637 26.8428 34.7982 26.4883 34.5062C26.4776 33.9717 26.5107 33.4409 26.5878 32.9137C26.7119 32.3339 26.9442 31.8031 27.2845 31.3213Z" fill="#022B73"/>
<path fill-rule="evenodd" clip-rule="evenodd" d="M9.56857 25.9468C9.83062 27.1719 10.461 28.1672 11.4596 28.9327C11.4623 29.1018 11.5287 29.2345 11.6587 29.3308C11.7346 29.4072 11.8341 29.457 11.9572 29.4801C11.3652 29.4915 11.2989 29.6741 11.7582 30.0275C11.9022 29.8381 12.0681 29.6722 12.2558 29.5298C12.8985 29.8307 12.8321 29.9634 12.0568 29.928C12.0568 30.1934 12.0568 30.4587 12.0568 30.7242C11.9252 30.7073 11.809 30.7404 11.7084 30.8237C11.659 31.0871 11.6423 31.3525 11.6587 31.6199C11.7582 31.6199 11.8577 31.6199 11.9572 31.6199C11.9222 31.876 11.972 32.1082 12.1065 32.3166C12.148 32.1916 12.2309 32.1252 12.3554 32.1176C12.0434 32.7738 12.2093 33.2879 12.853 33.6603C13.7345 33.7908 14.1658 33.4093 14.1469 32.5157C14.3256 32.6445 14.5247 32.744 14.744 32.8143C15.9039 32.9753 17.0485 32.9089 18.1778 32.6152C18.6342 32.0713 19.1981 31.8059 19.8698 31.819C19.9296 31.634 20.0125 31.6008 20.1186 31.7195C20.0186 31.8372 19.9356 31.9699 19.8698 32.1176C19.8366 32.5821 19.8034 33.0465 19.7702 33.511C19.5819 33.8651 19.3 34.1139 18.9242 34.2574C18.0285 34.2906 17.1327 34.3238 16.237 34.357C15.4816 34.6809 14.9674 35.2283 14.6943 35.9992C14.4894 36.8421 14.8047 37.2733 15.6398 37.2931C15.795 37.8267 16.0438 37.8931 16.3863 37.4921C16.4165 37.6853 16.4994 37.8511 16.6351 37.9898C17.894 38.0563 19.1547 38.0563 20.4172 37.9898C20.3856 37.684 20.4188 37.3854 20.5167 37.094C21.296 36.6805 22.059 36.2492 22.8058 35.8001C23.3921 35.4309 23.9395 34.9996 24.4481 34.5063C24.5828 34.1218 24.6326 33.7237 24.5973 33.3119C24.7131 35.3519 24.7296 37.4088 24.6471 39.4827C24.0901 42.2405 22.4147 43.4846 19.6209 43.215C18.3893 42.8558 17.8086 42.0429 17.8792 40.7765C17.9479 40.5082 18.0972 40.2925 18.3271 40.1296C19.2792 40.002 20.2414 39.9356 21.2134 39.9306C21.7702 39.6963 21.9527 39.2815 21.7608 38.6865C21.6057 38.5014 21.4233 38.3521 21.2134 38.2386C20.2181 38.1722 19.2228 38.1722 18.2275 38.2386C16.6571 38.8094 15.9604 39.9208 16.1374 41.5728C14.5457 41.5607 13.5338 40.7645 13.1018 39.1841C13.0522 38.6875 13.0355 38.1899 13.0521 37.6912C13.142 37.6206 13.1752 37.5211 13.1516 37.3926C12.9194 37.3926 12.6871 37.3926 12.4549 37.3926C10.1581 36.7686 9.21255 35.2757 9.61833 32.9138C9.86277 32.2258 10.2111 31.5955 10.6634 31.0228C8.91437 30.8166 7.83608 29.8545 7.42871 28.1364C7.28708 27.0355 7.58566 26.0734 8.32446 25.2501C8.57199 25.7803 8.98662 26.0125 9.56857 25.9468Z" fill="#031E44"/>
<path fill-rule="evenodd" clip-rule="evenodd" d="M13.4487 31.7194C13.8229 31.8614 14.0551 32.1268 14.1454 32.5157C14.1643 33.4092 13.7331 33.7907 12.8516 33.6602C12.2078 33.2879 12.042 32.7737 12.3539 32.1176C12.6265 31.7683 12.9915 31.6355 13.4487 31.7194Z" fill="#F5F8FA"/>
<path fill-rule="evenodd" clip-rule="evenodd" d="M21.5108 33.71C21.4946 33.9446 21.5111 34.1768 21.5606 34.4067C21.7404 34.0429 21.9228 34.0264 22.108 34.357C21.953 34.5498 21.7539 34.6991 21.5108 34.8048C21.4525 34.784 21.4028 34.7508 21.3616 34.7053C21.0824 34.9065 21.0492 35.1387 21.262 35.402C21.7505 35.6029 22.2648 35.7355 22.8047 35.8001C22.0579 36.2492 21.2949 36.6804 20.5156 37.094C20.4176 37.3854 20.3845 37.684 20.416 37.9897C19.1536 38.0563 17.8929 38.0563 16.634 37.9897C16.4983 37.8511 16.4154 37.6853 16.3851 37.4921C16.0427 37.8931 15.7938 37.8267 15.6387 37.293C16.0475 36.8911 16.4456 36.4764 16.833 36.0489C17.6956 36.0158 18.5581 35.9826 19.4207 35.9494C20.5884 35.6282 21.2851 34.8818 21.5108 33.71Z" fill="#022761"/>
<path fill-rule="evenodd" clip-rule="evenodd" d="M27.582 35.3025C28.6711 35.9546 29.7991 36.5518 30.966 37.094C31.1609 36.6733 31.0613 36.3581 30.6674 36.1485C30.9147 35.9863 31.1303 36.0361 31.3143 36.2978C31.3973 36.2149 31.4803 36.1319 31.5632 36.049C31.3641 35.9826 31.1651 35.9163 30.966 35.8499C30.8912 35.7831 30.8579 35.7002 30.8665 35.6011C31.1177 35.7431 31.383 35.8593 31.6627 35.9494C32.4921 35.9826 33.3215 36.0158 34.1509 36.049C34.2836 36.1153 34.4163 36.1816 34.549 36.248C34.6974 36.7284 34.996 37.0768 35.4448 37.2931C35.5207 37.3695 35.6202 37.4193 35.7434 37.4424C35.6746 37.5485 35.6248 37.6647 35.5941 37.7907C35.3776 37.8658 35.162 37.9488 34.9471 38.0395C33.5522 38.0449 32.1588 37.9951 30.7669 37.8902C30.7669 37.6248 30.7669 37.3594 30.7669 37.094C30.5978 37.1099 30.4319 37.0934 30.2693 37.0442C29.7234 36.6336 29.1262 36.3018 28.4778 36.049C28.1044 35.8913 27.8058 35.6425 27.582 35.3025Z" fill="#022561"/>
<path fill-rule="evenodd" clip-rule="evenodd" d="M26.5875 32.9138C26.5104 33.441 26.4772 33.9717 26.488 34.5062C26.488 36.0655 26.488 37.6247 26.488 39.184C26.3723 37.2105 26.3557 35.2199 26.4382 33.2123C26.4613 33.0892 26.5111 32.9897 26.5875 32.9138Z" fill="#7E91B0"/>
<path fill-rule="evenodd" clip-rule="evenodd" d="M12.4512 37.3926C12.6834 37.3926 12.9157 37.3926 13.1479 37.3926C13.1715 37.5211 13.1383 37.6206 13.0483 37.6912C12.8835 37.5359 12.6845 37.4364 12.4512 37.3926Z" fill="#5C6D8B"/>
<path fill-rule="evenodd" clip-rule="evenodd" d="M13.25 47.8431C13.1761 47.4613 12.9439 47.2954 12.5533 47.3454C12.5735 47.1573 12.5072 47.008 12.3543 46.8975C12.4461 46.6944 12.4793 46.4787 12.4538 46.2506C12.3211 46.2506 12.1883 46.2506 12.0557 46.2506C12.0557 46.1179 12.0557 45.9852 12.0557 45.8525C11.8574 45.8696 11.6916 45.8032 11.558 45.6534C11.3916 45.8695 11.2092 46.0686 11.0106 46.2506C10.8493 46.2282 10.7331 46.1453 10.6623 46.0018C10.8517 45.1719 10.9181 44.3259 10.8613 43.4638C10.5959 43.4638 10.3306 43.4638 10.0651 43.4638C10.0651 43.6629 10.0651 43.8619 10.0651 44.061C9.93244 44.061 9.79967 44.061 9.667 44.061C9.667 43.8619 9.667 43.6629 9.667 43.4638C9.40155 43.4638 9.13621 43.4638 8.87077 43.4638C8.87077 43.3311 8.87077 43.1984 8.87077 43.0657C8.7381 43.0657 8.60533 43.0657 8.47266 43.0657C8.47266 42.6676 8.47266 42.2695 8.47266 41.8714C8.87077 41.8714 9.26888 41.8714 9.667 41.8714C9.667 41.7387 9.667 41.6059 9.667 41.4732C10.3008 41.4404 10.9312 41.4736 11.558 41.5728C11.7386 42.0007 11.9376 42.0339 12.1552 41.6723C12.3073 41.9958 12.44 42.3275 12.5533 42.6676C12.6116 42.6468 12.6614 42.6135 12.7026 42.5681C12.9281 42.713 13.177 42.796 13.4491 42.8169C13.3164 42.8833 13.3164 42.9495 13.4491 43.0159C13.306 43.0377 13.1733 43.0875 13.051 43.1652C13.2313 43.5035 13.2977 43.8685 13.25 44.26C13.5155 44.26 13.7808 44.26 14.0462 44.26C14.0462 44.5255 14.0462 44.7908 14.0462 45.0563C14.3117 45.0563 14.577 45.0563 14.8425 45.0563C14.8425 45.3217 14.8425 45.5871 14.8425 45.8525C15.1079 45.8525 15.3733 45.8525 15.6387 45.8525C15.6387 45.5871 15.6387 45.3217 15.6387 45.0563C15.9041 45.0563 16.1695 45.0563 16.4349 45.0563C16.4349 45.8525 16.4349 46.6487 16.4349 47.4449C15.9041 47.4449 15.3733 47.4449 14.8425 47.4449C14.8149 47.7384 14.848 48.0203 14.942 48.2909C14.6098 48.3407 14.4439 48.1914 14.4444 47.8431C14.2461 47.8602 14.0803 47.7938 13.9467 47.644C13.7359 47.7879 13.5037 47.8543 13.25 47.8431Z" fill="#004371"/>
</svg>
